<svg width="256" height="301" viewBox="0 0 256 301" fill="none" xmlns="http://www.w3.org/2000/svg">
<g clip-path="url(#clip0_2_15332)">
<path d="M78.389 0.858823C76.9847 0.872225 75.5269 1.21102 74.1988 1.94718C69.9813 4.285 68.4345 9.70483 70.7705 13.9191L80.2936 31.1152C57.3502 45.3113 42.1467 69.5587 42.1467 97.233C42.1467 97.3492 42.1464 97.5237 42.1467 97.6955C42.1468 97.7562 42.1461 97.7907 42.1467 97.8588C42.1467 97.9492 42.1467 98.0813 42.1467 98.1037V102.375C37.7402 97.3055 31.2627 94.104 24.0255 94.104C10.7666 94.104 0 104.871 0 118.129V192.138C0 205.397 10.7666 216.163 24.0255 216.163C31.2627 216.163 37.7402 212.962 42.1467 207.892V218.258C42.1467 232.235 53.5834 243.672 67.5598 243.672H74.0084V276.594C74.0084 289.853 84.7749 300.62 98.0339 300.62C111.293 300.62 122.059 289.853 122.059 276.594V243.672H133.215V276.594C133.215 289.853 143.982 300.62 157.241 300.62C170.5 300.62 181.266 289.853 181.266 276.594V243.672H187.715C201.691 243.672 213.128 232.235 213.128 218.258V207.892C217.534 212.962 224.012 216.163 231.249 216.163C244.508 216.163 255.275 205.397 255.275 192.138V118.129C255.275 104.871 244.508 94.104 231.249 94.104C224.012 94.104 217.534 97.3055 213.128 102.375V98.1853V98.1037C213.128 97.9727 213.128 97.8425 213.128 97.8588C213.13 97.598 213.128 97.3902 213.128 97.233C213.128 69.5635 197.89 45.3396 174.954 31.1424L184.504 13.9191C186.84 9.70481 185.293 4.28497 181.076 1.94716C179.748 1.211 178.29 0.872216 176.885 0.858798C173.771 0.828988 170.714 2.47038 169.104 5.37549L159.118 23.415C149.354 19.8119 138.73 17.8372 127.637 17.8372C116.556 17.8372 105.912 19.7916 96.1565 23.3878L86.1708 5.37549C84.5605 2.47037 81.5035 0.829057 78.389 0.858798V0.858823Z" fill="white"/>
<path d="M24.0261 100.362C14.1317 100.362 6.25867 108.235 6.25867 118.13V192.138C6.25867 202.033 14.1317 209.906 24.0261 209.906C33.9205 209.906 41.7936 202.033 41.7936 192.138V118.13C41.7936 108.235 33.9205 100.362 24.0261 100.362ZM231.25 100.362C221.355 100.362 213.482 108.235 213.482 118.13V192.138C213.482 202.033 221.355 209.906 231.25 209.906C241.144 209.906 249.017 202.033 249.017 192.138V118.13C249.017 108.235 241.144 100.362 231.25 100.362Z" fill="#A4C639"/>
<path d="M98.0339 184.818C88.1396 184.818 80.2665 192.691 80.2665 202.586V276.594C80.2665 286.489 88.1396 294.362 98.0339 294.362C107.928 294.362 115.801 286.489 115.801 276.594V202.586C115.801 192.691 107.928 184.818 98.0339 184.818ZM157.241 184.818C147.346 184.818 139.473 192.691 139.473 202.586V276.594C139.473 286.489 147.346 294.362 157.241 294.362C167.135 294.362 175.008 286.489 175.008 276.594V202.586C175.008 192.691 167.135 184.818 157.241 184.818Z" fill="#A4C639"/>
<path d="M78.4435 7.11731C78.0235 7.12161 77.6321 7.22997 77.2463 7.44381C75.9793 8.1461 75.5627 9.60199 76.2668 10.8722L88.7829 33.4828C64.7024 46.0125 48.4374 69.824 48.4048 97.1518H206.87C206.837 69.824 190.572 46.0125 166.492 33.4828L179.008 10.8722C179.712 9.60199 179.295 8.1461 178.028 7.44381C177.642 7.22997 177.251 7.12131 176.831 7.11731C175.932 7.10863 175.08 7.55789 174.6 8.42334L161.921 31.2789C151.548 26.6781 139.914 24.0957 127.637 24.0957C115.36 24.0957 103.726 26.6781 93.354 31.2789L80.6746 8.42334C80.1949 7.55789 79.3426 7.10869 78.4435 7.11731ZM48.4048 103.41V218.259C48.4048 228.871 56.948 237.414 67.5599 237.414H187.715C198.327 237.414 206.87 228.871 206.87 218.259V103.41H48.4048Z" fill="#A4C639"/>
<path d="M91.0682 54.9229C87.4507 54.9229 84.4564 57.9172 84.4564 61.5346C84.4564 65.1521 87.4507 68.1464 91.0682 68.1464C94.6857 68.1464 97.68 65.1521 97.68 61.5346C97.68 57.9172 94.6857 54.9229 91.0682 54.9229ZM164.206 54.9229C160.588 54.9229 157.594 57.9172 157.594 61.5346C157.594 65.1521 160.588 68.1464 164.206 68.1464C167.823 68.1464 170.818 65.1521 170.818 61.5346C170.818 57.9172 167.823 54.9229 164.206 54.9229Z" fill="white"/>
</g>
<defs>
<clipPath id="clip0_2_15332">
<rect width="256" height="301" fill="white"/>
</clipPath>
</defs>
</svg>
