<svg width="512" height="200" viewBox="0 0 512 200" fill="none" xmlns="http://www.w3.org/2000/svg">
<g clip-path="url(#clip0_2_14333)">
<path d="M351.14 17.6974L351.026 16.6004L349.249 16.7524L349.362 17.8484L351.14 17.6974ZM363.089 46.4354L363.127 47.0404L364.375 46.9274C364.337 46.5494 364.488 45.9444 364.753 45.1884L364.639 44.0914C364.11 44.1294 363.58 44.9234 363.089 46.4354ZM316.464 82.6234C316.389 81.6024 313.212 77.6324 306.935 70.6364C306.822 69.3514 308.977 67.4224 313.401 64.8894L326.031 53.8854C328.867 50.2924 330.531 44.4694 331.023 36.3774L330.871 34.5244C330.38 28.9284 326.334 24.4284 318.658 20.9874C314.12 17.9244 305.952 16.2224 294.154 15.9204C284.398 16.7524 271.655 20.2304 255.962 26.3944C251.651 29.4954 246.736 32.5964 241.215 35.6964L241.29 36.6424C241.631 36.6044 242.16 36.4154 242.765 35.9994C243.408 35.9234 243.786 36.2264 243.824 36.8314L244.769 36.3394L245.223 36.3014L245.261 36.7174C245.299 37.2094 241.895 39.8944 235.013 44.6964L235.543 45.6794L235.089 45.7174L233.954 45.3014C233.992 45.6414 233.501 45.8684 232.555 45.9444L232.593 46.3604L233.69 47.7214C233.35 47.7594 232.82 47.6084 232.102 47.3434C230.513 47.4944 228.963 48.3264 227.413 49.9144L228.056 47.1164C230.362 37.1714 231.95 28.3604 232.782 20.7224L232.669 20.2304C231.081 19.2094 229.53 17.7724 228.093 15.9574C228.131 14.7854 228.131 14.1054 228.093 13.9534L227.98 13.5374L227.526 13.6514C222.535 21.1384 212.93 33.9194 198.674 51.9944C187.822 64.8514 182.225 71.9984 181.885 73.4354C177.461 78.0104 175.343 80.7714 175.57 81.7164C174.398 82.4724 173.906 83.2284 174.095 84.0604C173.755 84.1364 173.528 84.0234 173.452 83.6824C171.562 86.7454 168.763 88.7114 165.02 89.5814L161.087 90.4894C160.558 90.6024 160.293 90.9804 160.331 91.6234L160.444 92.1154L161.919 91.7744L162.033 92.1904L158.705 93.4764L152.806 94.8374L149.705 95.0264C149.251 95.4804 152.163 94.9894 151.029 95.2534L147.172 96.1614C144.827 96.6904 143.542 96.5014 143.315 95.5564L142.861 95.6694C142.937 96.0854 142.974 96.3884 142.899 96.6524L142.672 95.7074L139.571 96.4254C139.344 94.9894 135.147 89.7704 127.017 80.7714C126.866 79.0314 129.739 76.4974 135.601 73.2084L152.163 58.6494C155.869 53.8854 158.062 46.2464 158.781 35.7344L158.554 33.2764C157.911 25.8654 152.541 19.8904 142.445 15.2774C136.47 11.2314 125.731 9.07539 110.228 8.73539C97.371 9.83239 80.581 14.4074 59.935 22.3864C54.263 26.5074 47.797 30.5914 40.537 34.6374L40.65 35.9234C41.142 35.8854 41.784 35.6214 42.578 35.1674C43.41 35.0914 43.864 35.4694 43.94 36.2264L45.225 35.5074L45.868 35.4694L45.906 36.0744C45.944 36.6794 41.444 40.1964 32.331 46.6244L33.049 47.7594L32.407 47.7974L31.007 47.3054C31.045 47.6834 30.402 47.9484 29.079 48.0614L29.154 48.7424L30.667 50.4064C30.176 50.4444 29.495 50.2924 28.625 49.9904C25.676 50.2554 22.802 52.3724 19.966 56.3814L20.684 57.5154C23.142 55.2464 24.579 54.1124 24.995 54.0744L25.146 55.9274C24.73 55.9654 24.087 56.2294 23.218 56.6834L24.768 59.0284C27.755 55.8134 31.045 53.0534 34.638 50.7464C36.415 51.2004 37.36 51.7674 37.398 52.3724L38.759 52.2594C48.515 45.0364 58.158 39.8184 67.725 36.6044L67.838 37.8894C66.061 40.5364 64.851 41.8984 64.208 41.9734C64.284 42.8814 64.586 43.6754 65.153 44.3564C65.305 45.9824 60.956 56.9484 52.145 77.2164C32.142 124.332 15.352 159.196 1.702 181.734C1.739 182.187 2.004 182.792 2.496 183.549C5.861 182.755 7.979 181.923 8.886 181.128L9.605 181.053L9.718 182.339L10.966 182.225L12.252 181.507C12.29 181.885 12.706 182.074 13.575 181.998L13.689 183.284C13.802 184.532 13.084 186.422 11.571 189.032C10.21 190.582 8.735 193.834 7.185 198.788L7.222 199.393L8.47 199.279C13.916 193.191 18.037 187.216 20.873 181.393C36.755 176.742 48.856 172.167 57.25 167.667C65.683 166.948 72.111 164.717 76.498 161.049L76.422 160.369L73.246 161.314L72.527 161.39L72.451 160.709C78.653 159.764 82.926 158.402 85.308 156.512C97.371 147.209 106.484 140.63 112.648 136.735C125.315 127.433 133.559 118.357 137.302 109.547C137.983 109.396 138.663 109.244 139.42 109.055C141.197 108.98 142.18 108.942 142.445 108.866C142.369 108.526 142.521 108.337 142.861 108.261C145.697 107.959 144.336 108.45 146.151 108.034L150.915 106.938C150.613 107.013 150.499 107.165 150.575 107.467L151.293 107.013C151.142 107.013 151.029 106.976 150.915 106.938L151.709 106.749L151.331 106.976C151.861 107.051 152.428 107.013 153.071 106.862L153.411 108.261L131.744 142.71L126.941 148.722L124.597 156.587L125.051 156.474L127.395 155.491L126.639 158.554L126.866 159.461L127.508 160.255C127.206 160.331 127.093 160.52 127.168 160.86L127.282 161.352L128.265 161.125C129.702 159.877 130.307 158.743 130.08 157.722C131.63 157.986 132.651 158.1 133.181 157.949L133.294 158.44C132.349 158.667 131.857 159.423 131.781 160.709L131.895 161.201L132.424 161.087C140.29 152.503 159.575 123.122 175.041 103.194C174.549 101.039 182.603 98.0514 199.241 94.1944L199.771 94.0814C200.376 96.6904 199.09 103.005 195.914 113.026C193.872 119.076 192.889 122.404 193.04 122.933C190.393 130.987 189.145 135.336 189.296 136.017L183.397 155.339C179.578 165.247 176.667 175.646 174.625 186.612C174.965 186.536 175.494 186.574 176.251 186.763L177.082 186.044C177.158 186.385 177.385 186.498 177.725 186.422L177.385 185.023L179.956 184.948C180.712 184.759 181.355 183.813 181.885 182.074C181.771 179.465 182.301 178.066 183.473 177.763C185.061 171.562 186.044 168.461 186.385 168.347C187.859 162.184 188.956 158.667 189.674 157.797C191.906 149.781 193.531 145.659 194.59 145.394L194.817 146.378L193.191 150.575C190.355 163.167 187.481 173.112 184.57 180.41L185.402 184.04L185.931 183.927C192.964 168.801 203.098 138.853 216.295 94.0814C216.674 90.1484 218.564 87.0854 221.93 84.9304L221.173 84.1364L221.06 83.7204C222.573 83.3804 223.631 82.7754 224.236 81.9434C224.161 81.6024 222.837 81.1114 220.266 80.4304L226.846 52.2214C228.282 50.9354 229.114 50.2554 229.379 50.2554L229.493 51.6924C229.152 51.7294 228.623 51.9184 228.018 52.3344L229.266 54.1124C231.534 51.6544 233.992 49.5364 236.677 47.7594C238.038 48.1374 238.719 48.5914 238.795 49.0454L239.778 48.9694C247.265 43.4864 254.601 39.5534 261.823 37.1714L261.899 38.1164C260.576 40.1204 259.668 41.1414 259.176 41.1794C259.252 41.8604 259.441 42.4654 259.781 42.9944C259.895 44.2424 256.643 52.5614 249.988 67.9894C234.786 103.723 222.043 130.155 211.682 147.323C211.72 147.663 211.947 148.117 212.363 148.722C214.896 148.117 216.522 147.474 217.165 146.869L217.619 146.831L217.695 147.777L218.753 147.701L219.699 147.209C219.736 147.474 220.077 147.588 220.72 147.55L220.795 148.571C220.871 149.478 220.342 150.915 219.169 152.881C218.073 154.054 216.938 156.512 215.728 160.255L215.766 160.747L216.749 160.671C220.871 156.058 224.009 151.52 226.165 147.058C238.227 143.504 247.416 140.063 253.769 136.659C260.235 136.092 265.113 134.428 268.441 131.63L268.403 131.139L265.945 131.857L265.416 131.895L265.378 131.403C270.067 130.723 273.357 129.664 275.134 128.265C284.285 121.231 291.205 116.202 295.894 113.253C310.49 102.627 317.296 92.4174 316.464 82.6234ZM313.969 83.2664L314.309 87.0854C313.855 88.0314 313.364 88.5224 312.91 88.5604L312.343 82.0564C313.401 82.4344 313.931 82.8124 313.969 83.2664ZM27.642 52.4864L26.999 52.5234L26.886 51.3514L29.495 51.1244L29.533 51.7294C29.117 51.7674 28.474 51.9944 27.642 52.4864ZM14.899 179.956C13.386 179.276 12.025 179.011 10.853 179.124L10.701 177.271C10.626 176.553 11.042 176.061 11.949 175.872C12.781 175.797 13.273 176.402 13.348 177.612C15.542 174.927 16.752 173.566 16.979 173.528L18.378 174.095C17.924 177.877 16.752 179.805 14.899 179.956ZM151.067 37.5114C150.424 37.5874 149.138 35.5834 147.285 31.6124L147.172 30.4404C148.382 30.3274 149.63 32.2934 150.953 36.3394L151.067 37.5114ZM149.251 23.4074L148.722 24.6554L130.231 16.9414C142.558 17.3574 148.911 19.5124 149.251 23.4074ZM71.166 90.4514L68.557 90.6784L68.443 89.5054L71.052 89.2794L71.166 90.4514ZM69.048 50.1794L69.691 50.1414L69.842 51.9944C69.237 52.0324 68.443 52.9394 67.46 54.6794L67.346 53.3934C68.519 51.9944 69.124 50.9354 69.048 50.1794ZM63.565 63.1114L63.792 65.5694L63.149 65.6074L62.922 63.1494L63.565 63.1114ZM60.691 67.7254L61.939 67.6114C61.826 69.6534 61.259 70.7504 60.238 70.8254L59.595 70.8634C60.389 69.5024 60.767 68.4434 60.691 67.7254ZM58.536 74.1534L59.254 74.0774L59.292 74.6824L58.12 76.6494L56.872 76.7624L56.834 76.1574C58.082 76.0444 58.649 75.4014 58.536 74.1534ZM56.418 79.9394L56.04 83.0394L55.397 83.0774L55.133 80.0144L56.418 79.9394ZM35.205 140.252C34.373 144.487 33.465 146.642 32.52 146.718L32.482 146.113C32.255 144.033 33.163 142.067 35.205 140.252ZM31.31 148.684L31.348 149.289C31.423 150.121 31.045 150.613 30.213 150.65L30.176 150.045C30.1 149.327 30.478 148.873 31.31 148.684ZM30.176 166.192L32.142 166.003L32.217 166.684C31.726 166.721 31.083 166.986 30.289 167.44L29.041 167.553C28.965 166.911 29.381 166.419 30.175 166.192H30.176ZM86.14 148.911C75.098 154.356 68.594 158.062 66.666 159.99C54.717 164.15 48.78 166.721 48.893 167.742C38.268 171.94 31.272 175.041 27.907 176.969C27.113 177.045 25.978 176.742 24.466 176.061C24.277 173.906 25.26 172.167 27.339 170.768C29.192 170.616 30.969 170.881 32.671 171.599C34.638 170.578 38.079 169.444 42.957 168.234L42.843 166.948L38.911 167.289C39.402 166.608 43.183 164.831 50.292 161.957L52.259 161.768L52.297 162.373C48.931 162.675 47.078 163.659 46.662 165.436C46.738 166.23 47.192 166.57 48.024 166.495C50.557 164.906 51.805 163.961 51.767 163.696C56.57 162.789 69.842 155.831 91.585 142.861L91.699 144.033C91.737 144.6 89.884 146.188 86.14 148.911ZM52.788 159.877C55.965 159.612 58.687 158.327 60.956 156.096C61.863 156.02 62.355 156.36 62.393 157.154C60.842 157.306 57.855 158.591 53.507 161.087L52.864 161.125L52.788 159.877ZM106.597 118.546L89.921 131.744C77.518 139.874 70.863 143.957 69.918 144.033C50.179 154.886 37.89 160.52 33.125 160.936L32.407 161.011C33.012 158.781 41.784 140.819 58.801 107.013C66.288 106.37 78.086 102.892 94.157 96.5394L98.089 96.1984C106.219 95.4804 112.307 97.0684 116.316 100.85L116.542 103.307C113.517 112.005 110.19 117.072 106.597 118.546ZM74.002 100.207L76.687 99.9804L76.724 100.585L74.04 100.812L74.002 100.207ZM111.702 93.8164L113.669 93.6274C115.484 94.4974 116.429 95.2534 116.505 95.9344L116.542 96.5394C114.803 96.6904 113.177 95.7834 111.702 93.8164ZM117.034 63.4524C115.295 65.5314 110.53 69.0864 102.74 74.0774C100.169 74.3044 90.602 78.0104 74.04 85.2704C73.208 84.8924 72.338 84.7414 71.393 84.8174L71.279 83.6444C71.09 81.2624 72.149 78.2754 74.493 74.6454C75.779 67.8384 77.178 63.9434 78.729 62.9984L92.531 31.9534C92.379 30.0244 95.329 28.5494 101.379 27.5284L103.345 27.3394L103.497 29.1174C109.433 28.2094 113.139 27.6804 114.576 27.5664C125.542 26.6214 131.252 28.8524 131.706 34.1844L132.954 34.0704L132.689 30.9324L134.05 30.8184C137.264 32.5964 139.004 34.7514 139.231 37.2844C139.382 39.0244 138.437 41.1794 136.432 43.7514C135.601 43.8264 135.109 43.2214 135.033 42.0114L133.672 42.1254L133.37 45.9064C127.811 54.2254 123.765 58.4984 121.269 58.7254C119 61.8644 117.601 63.4144 117.034 63.4524ZM125.504 85.1954C124.37 84.4384 123.462 84.0984 122.782 84.1364L122.63 82.2834L123.878 82.1704L126.639 83.7964C126.752 84.6654 126.374 85.1194 125.504 85.1954ZM134.277 95.5934C135.487 96.0854 136.206 96.6144 136.357 97.1064L135.752 97.2574L135.79 97.2954C135.676 97.2954 135.525 97.3334 135.411 97.3714L134.504 98.0894L134.277 95.5934ZM135.109 100.812L134.996 100.32L136.584 99.9424L136.697 100.434L135.109 100.812ZM138.928 105.085C140.554 104.82 141.348 104.707 144.373 104.026L144.487 104.518L138.739 105.841C138.815 105.576 138.89 105.312 138.928 105.085ZM144.525 107.467C142.105 107.694 142.634 107.391 138.777 108.261L138.663 107.77L143.466 106.219L145.773 105.69L145.999 106.597C144.978 106.824 145.735 106.824 144.525 107.467ZM149.63 106.257C149.062 106.408 148.609 106.144 148.344 105.501L149.819 105.16C150.461 105.009 150.877 105.274 151.029 105.917L149.63 106.257ZM163.469 91.3584L163.356 90.8674L165.738 90.3004L165.965 91.2074L163.469 91.3584ZM178.255 182.036C178.406 181.355 178.444 180.864 178.368 180.523L178.898 180.41C179.54 180.259 179.918 180.486 180.07 181.091L180.183 181.582L178.255 182.036ZM188.616 95.2534L187.557 95.0644C185.855 95.7454 184.418 96.2364 183.246 96.5014L182.263 96.7284C181.696 96.8794 181.242 96.6524 181.015 96.0474L187.935 94.4594L190.204 93.4004L190.96 94.2704C189.863 94.4974 189.069 94.8374 188.616 95.2534ZM193.947 93.5514L193.834 93.0604C194.174 92.9844 194.628 92.7204 195.12 92.2284L200.035 91.0944L200.149 91.5854C197.54 92.2284 195.46 92.8714 193.947 93.5514ZM194.704 83.6064C194.363 83.6824 193.91 83.9854 193.342 84.4384C193.267 84.0984 192.586 84.0984 191.3 84.4014C191.074 83.4554 194.704 82.1324 202.229 80.3924L203.287 80.1654L203.514 81.0734C198.22 82.6234 195.271 83.4934 194.704 83.6064ZM207.939 69.3134C207.409 75.3254 205.292 78.7294 201.548 79.5984L201.435 79.1074L198.107 80.3924L196.632 80.7334C195.876 80.9224 195.195 80.8844 194.59 80.6954L194.288 79.3714C194.174 78.8804 198.977 72.2244 208.733 59.4434L209.867 59.6334C210.283 61.3724 209.64 64.5864 207.939 69.3134ZM231.345 49.2714L230.892 49.3094L230.816 48.3644L232.782 48.1754L232.82 48.6664C232.48 48.7424 231.988 48.9314 231.345 49.2714ZM221.703 146.113C220.568 145.583 219.547 145.357 218.678 145.432L218.564 143.995C218.526 143.504 218.829 143.163 219.472 142.974C220.115 142.899 220.493 143.352 220.568 144.336C222.194 142.256 223.102 141.197 223.291 141.197L224.312 141.613C223.934 144.487 223.064 145.999 221.703 146.113ZM325.086 37.9654C324.594 38.0034 323.649 36.4904 322.174 33.4274L322.099 32.4824C323.044 32.4064 324.027 33.8814 325.01 36.9064L325.086 37.9654ZM323.725 27.1504L323.271 28.1334L309.28 22.2724C318.62 22.5754 323.46 24.2014 323.725 27.1504ZM264.395 78.0864L262.428 78.2754L262.353 77.3294L264.319 77.1784L264.395 78.0864ZM262.769 47.4944L263.298 47.4564L263.411 48.8934C262.92 48.9314 262.315 49.6124 261.596 50.9354L261.521 49.9904C262.391 48.8934 262.806 48.0614 262.769 47.4944ZM258.647 57.3264L258.798 59.1794L258.269 59.2174L258.117 57.3644L258.647 57.3264ZM256.416 60.8434L257.399 60.7674C257.286 62.3554 256.87 63.1874 256.151 63.2634L255.622 63.3004C256.189 62.2424 256.454 61.4104 256.416 60.8434ZM254.828 65.6834L255.282 65.6454L255.319 66.1364L254.45 67.6494L253.466 67.7254L253.429 67.2334C254.45 67.1574 254.903 66.6284 254.828 65.6834ZM253.24 70.0694L252.899 72.4894L252.445 72.5274L252.256 70.1454L253.24 70.0694ZM237.093 115.937C236.45 119.114 235.77 120.74 235.051 120.815L235.013 120.399C234.9 118.811 235.58 117.299 237.093 115.937ZM234.106 122.328L234.143 122.744C234.219 123.424 233.917 123.803 233.236 123.84L233.198 123.349C233.16 122.857 233.463 122.517 234.106 122.328ZM233.274 135.638L234.786 135.525L234.824 136.016C234.484 136.054 233.954 136.243 233.349 136.584L232.366 136.659C232.328 136.13 232.631 135.79 233.274 135.638ZM275.739 122.517C267.42 126.639 262.466 129.437 260.916 130.874C251.84 134.05 247.341 136.017 247.416 136.811C239.362 140.025 234.068 142.331 231.572 143.806C230.967 143.844 230.097 143.617 228.963 143.088C228.812 141.462 229.568 140.138 231.156 139.155C232.593 139.042 233.954 139.231 235.202 139.76C236.715 139.004 239.324 138.172 243.03 137.227L242.954 136.281L239.853 136.508C240.232 135.979 243.143 134.617 248.551 132.424L250.063 132.311L250.101 132.727C247.53 132.954 246.093 133.71 245.79 135.071C245.828 135.676 246.206 135.979 246.849 135.903C248.74 134.655 249.647 133.937 249.647 133.71C253.277 133.067 263.336 127.773 279.861 117.866L279.936 118.811C279.974 119.227 278.575 120.437 275.739 122.517ZM250.404 130.836C252.861 130.609 254.941 129.664 256.681 128C257.323 127.924 257.702 128.227 257.739 128.832C256.605 128.945 254.374 129.891 251.008 131.706L250.479 131.744L250.404 130.836ZM291.318 99.4134L278.726 109.547C269.31 115.71 264.206 118.811 263.411 118.887C248.437 127.13 239.135 131.403 235.467 131.706L234.938 131.744C235.391 130.042 242.085 116.391 255.017 90.7534C260.651 90.2624 269.575 87.5774 281.827 82.7374L284.89 82.4724C291.053 81.9434 295.667 83.1534 298.692 86.0644L298.843 87.9174C296.536 94.4214 294.041 98.2404 291.318 99.4134ZM266.588 85.4974L268.554 85.3084L268.592 85.8004L266.626 85.9894L266.588 85.4974ZM295.213 80.6194L296.726 80.5064C298.125 81.1864 298.843 81.7924 298.881 82.2834L298.919 82.6994C297.595 82.8124 296.347 82.1324 295.213 80.6194ZM299.183 57.5914C297.86 59.1794 294.268 61.9014 288.407 65.6834C286.44 65.8724 279.18 68.6704 266.626 74.1154C266.021 73.8884 265.34 73.8134 264.621 73.8514L264.546 72.9054C264.395 71.0904 265.189 68.8214 266.928 66.0614C267.911 60.8434 269.008 57.9314 270.142 57.2504L280.692 33.6544C280.579 32.2554 282.81 31.1214 287.348 30.2514L288.86 30.1384L288.974 31.5754C293.436 30.8564 296.234 30.4404 297.368 30.3274C305.687 29.6084 310.036 31.2724 310.376 35.3564L311.359 35.2804L311.17 33.0114L312.154 32.9364C314.574 34.2594 315.859 35.8484 316.011 37.7384C316.124 39.1004 315.443 40.7634 314.006 42.6924C313.364 42.7674 312.986 42.3144 312.91 41.3314L311.927 41.4064L311.624 44.2424C307.427 50.6334 304.364 53.9234 302.435 54.0744C300.734 56.3814 299.675 57.5534 299.183 57.5914ZM303.608 73.3214L303.494 71.8844L304.477 71.8094L306.595 73.0944C306.633 73.6994 306.33 74.0404 305.687 74.1154C304.78 73.5484 304.099 73.2834 303.608 73.3214ZM127.584 165.171L126.601 165.398L125.769 166.116C125.92 166.721 126.298 166.948 126.941 166.797C127.584 166.646 127.849 166.268 127.698 165.663L127.584 165.171ZM123.841 157.722L123.954 158.213C124.597 158.062 124.861 157.684 124.71 157.079L124.597 156.587C123.992 156.739 123.727 157.117 123.841 157.722ZM150.461 94.3834L151.596 94.1194L151.369 93.1364L150.235 93.4004L150.461 94.3834ZM493.585 123.198C482.089 125.769 480.652 125.315 478.232 125.504L478.308 126.45L479.367 126.374L479.934 126.336L479.783 126.223L481.03 125.731C492.412 124.483 493.736 124.937 493.622 123.651L493.585 123.198ZM431.683 131.403L431.759 132.349H431.91L431.835 131.403H431.683ZM424.574 106.484L423.553 106.144C422.721 108.375 422.305 109.698 422.343 110.076L422.381 110.492C423.175 110.454 423.894 109.093 424.574 106.484ZM495.929 123.009L496.005 123.954L497.668 124.256L497.593 123.311L495.929 123.009ZM417.692 132.575L415.121 132.273L414.667 133.256L414.705 133.748L430.019 132.462L429.944 131.517L417.692 132.575ZM410.734 99.0354L410.697 98.5434L410.167 98.5814L409.222 99.1864L409.751 100.093C410.47 100.018 410.81 99.6774 410.734 99.0354ZM503.189 116.051L503.908 115.975C504.324 115.937 504.513 115.597 504.475 114.992L504.059 114.084C501.45 114.311 500.24 114.425 498.122 115.597L498.084 115.106L494.946 115.408C494.87 114.463 494.606 113.971 494.19 114.009L492.564 114.16C490.673 114.311 489.765 114.236 488.82 114.954C488.782 114.614 488.669 114.463 488.48 114.463L486.665 114.614L485.606 115.219C485.568 114.879 485.455 114.727 485.265 114.727L484.623 115.295L484.585 114.803L482.051 114.614L481.446 114.652L481.522 115.597L482.808 115.937L484.018 115.862C484.434 116.127 484.887 116.202 485.417 116.164L486.476 115.635L486.513 116.051C480.577 117.526 480.614 117.261 476.53 117.942C476.077 117.639 475.736 117.488 475.509 117.526L475.434 117.601C474.98 117.563 474.715 117.261 474.678 116.769L476.795 116.505C476.946 116.505 477.06 116.656 478.232 116.883C479.934 116.051 480.009 115.71 480.917 115.635L480.841 114.689C475.018 115.824 477.362 115.068 470.064 115.71L469.724 115.748L469.648 114.803C479.026 113.669 475.888 114.311 479.102 113.404C479.14 113.744 479.253 113.895 479.442 113.895C479.82 113.517 480.236 113.328 480.728 113.253L481.371 113.215C484.66 112.95 485.757 113.593 492.261 111.778L492.299 112.194L493.358 111.664L494.341 111.589C494.265 110.643 495.702 110.492 496.194 110.454L496.118 109.433C484.698 111.74 481.711 111.097 478.535 112.005L478.497 111.589C475.51 112.118 475.396 111.891 474.64 111.929C474.413 111.967 474.073 112.156 473.694 112.534C473.657 112.194 473.543 112.042 473.316 112.042C473.203 112.042 473.165 112.08 473.127 112.08L463.447 113.668C463.409 113.404 463.296 113.253 463.069 113.29C458.04 114.349 459.401 114.538 452.67 115.143C452.367 115.181 451.952 115.332 451.422 115.673C451.384 115.408 451.233 115.257 450.893 115.294L446.771 115.635L444.011 116.315C443.973 116.051 443.822 115.9 443.481 115.937C441.931 116.353 440.57 116.618 439.473 116.694H439.397C438.717 116.769 439.738 116.505 439.208 116.278L438.376 116.769C437.166 116.883 437.809 116.694 433.65 116.731C426.352 117.639 427.146 117.752 426.352 117.79L423.629 117.601C423.667 117.866 423.516 118.055 423.213 118.055C420.112 117.639 418.524 117.147 418.486 116.58C418.902 113.631 419.621 112.118 420.642 112.042L421.171 112.005L420.717 112.988L421.247 112.95C422.23 112.421 422.684 111.929 422.646 111.475L422.57 110.454L421.587 110.53L421.511 109.585C421.436 108.866 421.549 108.223 421.814 107.694L424.045 104.102L424.121 105.047L425.179 104.971L425.104 104.026L424.499 103.156C425.293 102.476 425.898 102.097 426.389 102.06L426.352 101.568L424.915 101.682L424.801 100.245C427.675 94.2704 429.036 90.7914 428.961 89.8084L429.982 90.2244C430.625 90.1864 430.927 89.8084 430.889 89.1274L429.906 89.2034L429.868 88.7874C429.793 88.0684 429.944 87.3884 430.246 86.7834C431.797 85.1574 432.515 83.5314 432.364 81.8294C432.667 81.7914 432.818 81.9434 432.856 82.2834C434.179 81.5274 435.2 79.5234 435.956 76.1954C438.301 71.9604 441.628 63.4904 445.977 50.8224C454.296 28.4364 453.956 26.0544 455.128 20.7604L454.145 20.8354C454.22 21.5164 454.069 22.1594 453.767 22.7644C453.086 22.4994 452.557 22.3484 452.179 22.3864L452.141 21.9704C451.989 20.0414 452.784 17.7354 454.599 15.0124L455.052 14.9744L455.884 18.2264L456.867 18.1514C456.83 17.9244 457.094 16.6384 457.624 14.2564C457.586 13.7644 457.208 13.4624 456.451 13.4244L455.506 14.0294C455.431 13.3484 455.468 11.5714 455.582 8.73539L455.09 8.77339C454.258 7.94139 453.842 7.26039 453.804 6.69339L448.397 7.22239C448.359 6.84439 448.17 6.27739 447.792 5.55939C447.754 5.06739 448.964 4.57539 451.46 4.08439L452.557 4.50039L453.578 3.89539C453.615 4.23539 453.804 4.38639 454.182 4.34939L455.203 3.74439C455.241 4.08439 455.43 4.23539 455.809 4.19739L456.3 4.16039L456.224 3.06339C455.468 3.13939 453.464 3.13939 450.288 3.02539L449.267 3.70639L449.229 3.10139C423.856 5.18039 409.449 6.35339 406.008 6.69339C405.554 6.73139 403.777 6.69339 400.638 6.61739C400.676 7.03339 400.298 7.26039 399.542 7.33639L398.445 6.84439L394.739 7.79039C393.869 7.86539 392.395 7.82739 390.353 7.60139C389.786 8.05439 389.105 8.31939 388.273 8.39539C387.819 8.43239 393.68 8.09239 399.125 7.71439C398.558 8.16839 397.689 8.43239 396.479 8.54639C395.647 8.62239 394.928 8.50839 394.323 8.16839C393.491 8.54639 390.807 9.15139 386.307 10.0584L385.21 9.64339L367.513 12.3654C366.832 12.0254 366.038 11.9114 365.131 11.9874C364.185 12.0634 362.597 12.4034 360.404 13.0084L351.858 16.5624L352.501 17.6214C352.917 17.5834 353.522 17.3574 354.24 16.9414L357.266 17.2054L356.887 20.0414C354.089 21.2894 352.463 23.1424 352.009 25.4874C347.812 27.3394 345.732 28.6634 345.732 29.4574L345.77 29.9494L346.413 29.9114L347.547 29.3064L348.871 30.8944L349.06 33.0874C349.135 33.7684 342.064 48.6294 327.922 77.6704C315.67 105.652 309.242 120.967 308.637 123.727C304.44 124.899 302.019 126.601 301.301 128.87C301.377 129.588 302.624 130.08 305.044 130.269L305.158 131.365L304.061 133.18L304.25 135.374C304.364 136.508 307.427 137.378 313.439 137.983C313.401 137.605 313.591 137.378 314.006 137.34C314.12 138.701 313.742 141.348 312.872 145.281L313.515 145.243C316.01 141.84 317.183 139.495 317.069 138.21L317.599 138.172C318.204 138.134 318.847 138.815 319.603 140.289C318.847 140.592 316.2 146.604 311.662 158.365L312.305 159.423L312.948 159.386C318.506 145.319 321.985 137.529 323.422 136.054C330.72 135.411 343.35 134.126 361.274 132.197L362.408 131.517C362.446 131.895 362.673 132.084 363.089 132.046L364.261 131.933L365.396 131.252C365.433 131.63 365.66 131.819 366.076 131.781L379.651 130.609C383.244 130.307 384.945 129.21 384.794 127.357C384.756 126.866 386.874 126.298 391.147 125.693C391.563 125.655 392.168 125.769 393 126.034C392.962 125.693 395.117 125.353 399.428 124.975C399.542 122.706 400.26 121.496 401.546 121.383L401.432 120.286C400.222 120.399 398.861 120.702 397.273 121.231C394.437 121.08 392.622 120.853 391.865 120.588C391.109 121.004 390.542 121.231 390.126 121.269L380.672 121.572L379.538 122.177C379.5 121.836 379.273 121.685 378.857 121.723L378.328 121.761L377.118 122.366C377.08 122.025 376.097 121.761 374.13 121.496L372.921 122.214L370.576 122.403L370.538 121.798C382.714 120.475 388.727 118.811 388.575 116.845C389.37 116.769 389.786 117.147 389.861 117.942L393.416 117.034L393.302 115.937L364.148 116.731C364.185 117.11 363.996 117.336 363.581 117.374L360.026 117.072C359.118 117.147 358.362 117.412 357.757 117.866L356.434 117.374C352.766 117.677 350.043 118.131 348.228 118.698C345.732 118.509 342.972 118.546 339.909 118.811L333.367 119.378L330.342 119.038C330.191 117.11 333.934 107.618 341.648 90.6024C343.88 84.8544 345.921 81.2624 347.888 79.9014C348.304 79.8634 348.909 80.0144 349.741 80.3544L354.392 78.7664L356.774 79.1444C360.782 78.8044 365.433 77.6704 370.765 75.7034C372.089 75.5904 373.072 75.6664 373.79 75.9684L377.345 75.1364L387.933 74.2294C392.432 73.8514 397.31 72.8674 402.604 71.2414L402.491 70.1454C400.525 70.3344 399.504 69.9944 399.428 69.1994C399.315 67.7254 397.878 67.1204 395.117 67.3464L395.004 66.2504L397.916 65.4184L405.554 64.7754L405.44 63.6794C405.138 63.7164 403.588 63.6794 400.714 63.5654L400.6 62.3934L403.55 62.1284C404.344 62.0534 404.684 61.6744 404.609 60.9184C400.638 61.0324 398.634 60.8434 398.596 60.3134C370.916 61.6744 357.039 61.9394 356.963 61.0694C356.547 61.1074 355.98 61.3724 355.224 61.8264L354.505 60.6914C361.841 45.1124 366.152 37.2474 367.4 37.1334C367.437 37.7384 367.135 38.7214 366.454 40.0454L366.492 40.5364L367.664 40.4234C370.576 33.4654 373.034 29.8734 375.076 29.7224C383.773 28.9654 373.866 28.3984 392.47 25.4874C393.227 25.8274 393.756 25.9784 394.134 25.9404C401.432 24.4664 411.604 22.9154 424.65 21.3274L424.574 20.2304L417.616 20.8734L417.541 19.7774C418.373 19.7014 419.053 19.4364 419.621 18.9834L419.658 19.5884C420.037 19.5504 420.566 19.2854 421.247 18.8314C422.457 18.7184 423.364 18.8314 424.007 19.1724C426.427 18.5294 428.393 18.1514 429.83 17.9994L434.179 17.5834C435.238 16.9034 435.729 16.2984 435.692 15.7314L435.654 15.2394C434.557 15.3524 433.309 15.2774 431.835 15.0124C431.797 14.4074 432.099 13.9914 432.818 13.8024L440.91 13.0464L444.616 12.1004C444.653 12.5164 444.843 12.6684 445.145 12.6684C445.523 12.6304 446.053 12.3654 446.733 11.9114C446.922 11.9494 447.149 11.9494 447.338 11.9874C446.847 13.0084 446.279 14.4834 445.712 16.4114L444.653 16.4874C444.578 15.7684 444.389 15.1264 444.048 14.5584L443.519 14.5964C433.687 41.9734 429.301 54.7174 420.226 75.7414C418.562 81.1114 417.163 84.0984 415.953 84.7414C415.991 85.3464 416.369 85.6484 417.012 85.5734C417.238 88.2204 416.633 90.8294 415.159 93.4004C410.961 105.501 408.163 112.118 406.726 113.328L407.671 119.038C407.709 119.643 407.407 119.983 406.764 120.059L405.781 120.135C405.629 118.546 405.062 117.79 404.041 117.904L403.512 117.942C402.226 119.946 401.243 122.252 400.6 124.937L401.583 124.861C402.907 123.992 403.512 122.971 403.398 121.798L405.365 121.609L406.499 122.025C405.592 123.462 405.176 124.597 405.251 125.466L405.781 126.374L404.495 129.399L404.533 129.891C405.667 129.777 406.915 130.155 408.239 130.949C409.146 130.874 410.129 130.458 411.226 129.739C412.36 129.626 416.595 129.588 423.894 129.588L427.561 128.34C432.024 128.302 432.742 128.416 436.599 128.076L438.187 127.924L439.019 127.357L439.057 127.849C443.103 127.508 443.368 127.773 446.544 128.151L446.582 128.643L444.351 128.832L444.426 129.777C445.107 129.702 445.712 129.512 446.204 129.097C446.771 129.059 447.111 129.361 447.149 130.042C446.242 130.118 445.221 130.344 444.086 130.723L443.103 130.382C441.553 130.798 441.893 130.912 440.834 130.987L439.284 130.685C439.322 130.949 439.17 131.138 438.906 131.138C438.943 131.744 439.284 132.046 439.851 132.008L441.439 131.857L449.72 131.138L452.859 130.458C452.897 130.723 453.01 130.874 453.275 130.836L454.787 130.269L457.624 130.042C459.817 129.853 459.779 129.702 464.543 128.945C464.506 128.643 464.619 128.529 464.846 128.492L464.884 128.907C472.636 127.584 473.127 127.508 474.375 127.092L474.488 127.319C476.417 126.866 475.32 126.979 475.85 126.601C475.888 126.941 476.001 127.092 476.19 127.092L477.551 126.979L477.476 125.958L474.715 125.92L474.678 125.845C474.564 125.882 474.488 125.882 474.375 125.92H473.997V125.996C472.144 126.374 472.106 126.109 470.896 126.223L463.976 126.601L463.938 126.109L467.795 125.58L469.194 125.466L469.989 124.899L470.026 125.391C475.472 124.937 477.4 126.298 502.584 120.929C503.945 120.815 503.832 119.681 504.702 117.336C504.248 117.374 503.794 117.261 503.378 117.034C501.299 117.828 500.202 117.45 496.194 118.093C495.853 118.131 495.589 117.828 495.475 117.223L495.437 116.807L499.294 116.92C500.013 116.845 501.412 116.731 503.492 115.559C503.492 115.9 502.735 116.089 503.189 116.051ZM316.994 119.038L315.216 119.189C315.141 118.471 316.086 115.748 318.052 111.097L319.225 110.984C319.263 112.08 318.544 114.765 316.994 119.038ZM319.149 110.417L319.111 109.925C319.073 109.32 319.452 108.904 320.284 108.715L320.321 109.206C320.359 109.925 319.981 110.341 319.149 110.417ZM342.783 128.681L342.821 129.172L339.871 129.437L339.833 128.945L342.783 128.681ZM339.228 128.378C339.266 128.983 338.359 129.664 336.392 130.344L332.762 130.08L331.59 130.193L331.477 129.097L339.228 128.378ZM363.127 18.3784L361.349 18.5294L361.312 17.9244C361.274 17.3194 361.614 16.9034 362.37 16.7144L363.013 16.6764L364.223 17.1674C364.261 17.8864 363.921 18.3024 363.127 18.3784ZM390.164 13.0844L390.731 13.0464L390.806 14.1424L389.18 14.2944C389.143 13.6894 389.445 13.2734 390.164 13.0844ZM383.357 15.4664L380.672 15.1634L380.634 14.6724C384.151 14.3694 385.323 13.9914 387.479 13.3864C387.517 13.8024 387.895 13.9534 388.575 13.8784L388.651 14.9744L387.592 15.0884C386.76 15.1634 386.042 15.0504 385.437 14.7104C384.794 15.1264 384.113 15.3904 383.357 15.4664ZM386.723 25.2604L386.685 24.7684L391.033 24.3524L391.071 24.8444L386.723 25.2604ZM391.374 21.4784L391.336 20.8734L393.453 20.6844L393.491 21.2894L391.374 21.4784ZM391.865 14.0674L391.298 14.1054L391.79 12.9324L396.63 12.4794L396.668 13.0844C395.42 13.1974 393.794 13.5374 391.865 14.0674ZM394.323 24.5034L394.247 23.4074L396.365 23.2184C397.084 23.1424 397.462 23.4824 397.5 24.2394L394.323 24.5034ZM407.142 7.03339L404.419 7.79039L403.928 7.82739C402.642 7.94139 400.978 7.90339 399.012 7.71439C402.529 7.48739 405.894 7.22239 407.142 7.03339ZM404.23 19.1344L404.268 19.6254L400.525 19.9664L400.487 19.4744L404.23 19.1344ZM410.356 22.0454C410.318 21.5924 409.6 21.2894 408.125 21.1384L404.382 22.1974L401.508 22.3104C400.865 21.8564 400.525 21.5544 400.487 21.3274L403.815 21.5164L411.302 20.3064L415.121 20.4574L415.159 21.0624C413.268 21.2514 411.68 21.5924 410.356 22.0454ZM448.889 12.1004C449.342 12.1384 449.645 12.1384 449.758 12.1384C451.082 10.8534 452.557 9.83239 454.258 9.11339C452.897 15.0884 450.779 19.5124 447.868 22.3864L445.75 21.1004C447.527 16.6004 448.586 13.6134 448.889 12.1004ZM442.385 23.2564L442.914 23.2184C442.195 24.5794 441.553 25.2974 441.023 25.3354L440.91 23.8984C441.25 23.8984 441.742 23.6714 442.385 23.2564ZM438.187 33.2764C439.208 29.1924 440.191 26.8864 441.099 26.2814L441.137 26.7724C440.607 30.5544 439.775 32.5584 438.679 32.7094L438.868 35.0914C437.96 36.3774 437.544 37.3604 437.582 38.1164L437.053 38.1544L436.75 34.8644C437.355 34.7894 437.847 34.2594 438.187 33.2764ZM436.561 38.7214C436.599 39.2894 436.221 40.6124 435.465 42.6544L434.935 42.6924L434.822 41.2554C435.54 39.5914 436.145 38.7594 436.561 38.7214ZM406.046 127.281L406.008 126.866L406.991 126.79L407.104 128.227C406.575 128.265 406.197 127.962 406.046 127.281ZM449.645 128.416C449.607 128.076 449.456 127.924 449.116 127.962L446.658 128.189L446.62 127.697H446.847L452.67 127.206L452.708 127.697C451.006 127.773 449.985 128.038 449.645 128.416ZM446.733 127.206C446.96 127.319 446.847 127.433 446.733 127.508C446.62 127.471 446.469 127.357 446.733 127.206ZM447.036 120.399L443.784 120.664L443.746 120.172L446.695 119.908L449.267 119.265C449.305 119.567 449.456 119.681 449.796 119.643C452.859 119.114 452.557 118.963 454.031 118.849C454.523 118.811 454.826 119.114 454.863 119.719L447.036 120.399ZM458.418 119.416C456.603 119.227 456.489 119.076 455.204 119.189L455.166 118.773L458.077 118.509L458.115 118.925C457.813 118.963 458.909 119.038 458.418 119.416ZM458.645 118.887L458.607 118.471L460.195 118.32L460.233 118.736L458.645 118.887ZM462.161 118.584L462.124 118.168C462.388 118.131 462.766 117.942 463.258 117.563C464.052 117.488 464.468 118.017 464.544 118.622L462.161 118.584ZM466.661 118.017L466.623 117.526L468.552 117.374L468.59 117.866L466.661 118.017ZM469.346 117.79C469.308 117.223 469.535 116.883 470.027 116.807L470.669 117.639C470.632 117.374 470.745 117.223 470.972 117.185L471.464 118.093L469.346 117.79ZM440.797 130.118L440.721 129.172L440.418 129.21L440.494 130.155L440.797 130.118ZM507.236 112.912C507.538 112.723 507.689 112.534 506.971 112.421C506.63 112.799 507.349 112.912 506.593 112.95L506.63 113.29C506.706 113.215 506.895 113.101 507.046 112.988L506.63 113.328V113.366L505.836 114.387L507.424 113.82H507.614L507.538 112.874L507.236 112.912ZM509.996 115.068L509.693 115.106L509.769 116.051L512 115.862C511.962 115.257 510.487 115.068 509.996 115.068ZM506.555 113.404L506.593 113.366V113.328C506.593 113.328 506.555 113.366 506.555 113.404Z" fill="black"/>
<path d="M361.387 43.41L361.425 44.015L362.673 43.902C362.635 43.524 362.786 42.919 363.051 42.162L362.938 41.066C362.408 41.104 361.879 41.898 361.387 43.41ZM349.438 14.672L349.325 13.575L347.547 13.726L347.661 14.823L349.438 14.672ZM314.763 79.598C314.687 78.577 311.511 74.607 305.234 67.611C305.12 66.326 307.276 64.397 311.7 61.864L324.33 50.86C327.166 47.267 328.829 41.444 329.321 33.352L329.17 31.499C328.678 25.902 324.632 21.403 316.956 17.962C312.418 14.899 304.25 13.197 292.453 12.894C282.697 13.726 269.953 17.205 254.261 23.369C249.95 26.47 245.034 29.57 239.513 32.671L239.589 33.617C239.929 33.579 240.458 33.39 241.064 32.974C241.706 32.898 242.085 33.201 242.122 33.806L243.068 33.314L243.521 33.276L243.559 33.692C243.597 34.184 240.194 36.868 233.312 41.671L233.841 42.654L233.387 42.692L232.253 42.276C232.291 42.616 231.799 42.843 230.854 42.919L230.892 43.335L231.988 44.696C231.648 44.734 231.119 44.583 230.4 44.318C228.812 44.469 227.261 45.301 225.711 46.889L226.354 44.091C228.661 34.146 230.249 25.335 231.081 17.697L230.967 17.205C229.379 16.184 227.829 14.747 226.392 12.932C226.43 11.76 226.43 11.079 226.392 10.928L226.278 10.512L225.825 10.626C220.833 18.113 211.228 30.894 196.973 48.969C186.12 61.826 180.523 68.972 180.183 70.409C175.759 74.985 173.641 77.745 173.868 78.691C172.696 79.447 172.204 80.203 172.394 81.035C172.053 81.111 171.826 80.997 171.751 80.657C169.86 83.72 167.062 85.686 163.318 86.556L159.385 87.463C158.856 87.577 158.591 87.955 158.629 88.598L158.743 89.089L160.217 88.749L160.331 89.165L157.003 90.451L151.104 91.812L148.004 92.001C147.55 92.455 150.461 91.963 149.327 92.228L145.47 93.136C143.126 93.665 141.84 93.476 141.613 92.531L141.159 92.644C141.235 93.06 141.273 93.362 141.197 93.627L140.97 92.682L137.869 93.4C137.643 91.963 133.445 86.745 125.315 77.745C125.164 76.006 128.038 73.472 133.899 70.183L150.461 55.624C154.167 50.86 156.36 43.221 157.079 32.709L156.852 30.251C156.209 22.84 150.84 16.865 140.743 12.252C134.769 8.206 124.03 6.05 108.526 5.71C95.669 6.806 78.88 11.382 58.233 19.361C52.561 23.482 46.095 27.566 38.835 31.612L38.948 32.898C39.44 32.86 40.083 32.596 40.877 32.142C41.709 32.066 42.163 32.444 42.238 33.201L43.524 32.482L44.167 32.444L44.204 33.049C44.242 33.654 39.742 37.171 30.629 43.599L31.348 44.734L30.705 44.772L29.306 44.28C29.344 44.658 28.701 44.923 27.377 45.036L27.453 45.717L28.965 47.381C28.474 47.419 27.793 47.267 26.924 46.965C23.974 47.229 21.1 49.347 18.264 53.355L18.983 54.49C21.441 52.221 22.877 51.087 23.293 51.049L23.445 52.902C23.029 52.939 22.386 53.204 21.516 53.658L23.067 56.002C26.054 52.788 29.344 50.028 32.936 47.721C34.713 48.175 35.659 48.742 35.696 49.347L37.058 49.234C46.814 42.011 56.456 36.793 66.023 33.579L66.137 34.864C64.359 37.511 63.149 38.873 62.506 38.948C62.582 39.856 62.885 40.65 63.452 41.331C63.603 42.957 59.254 53.923 50.444 74.191C30.44 121.307 13.651 156.171 0 178.708C0.038 179.162 0.303 179.767 0.794 180.523C4.16 179.729 6.277 178.898 7.185 178.103L7.903 178.028L8.017 179.313L9.264 179.2L10.55 178.482C10.588 178.86 11.004 179.049 11.874 178.973L11.987 180.259C12.1 181.507 11.382 183.397 9.869 186.006C8.508 187.557 7.033 190.809 5.483 195.763L5.521 196.367L6.769 196.254C12.214 190.166 16.336 184.191 19.172 178.368C35.054 173.717 47.154 169.141 55.549 164.642C63.981 163.923 70.409 161.692 74.796 158.024L74.72 157.344L71.544 158.289L70.825 158.365L70.75 157.684C76.951 156.739 81.224 155.377 83.607 153.487C95.669 144.184 104.782 137.605 110.946 133.71C123.614 124.408 131.857 115.332 135.601 106.522C136.281 106.37 136.962 106.219 137.718 106.03C139.495 105.955 140.479 105.917 140.743 105.841C140.668 105.501 140.819 105.312 141.159 105.236C143.995 104.934 142.634 105.425 144.449 105.009L149.214 103.913L150.008 103.723L149.63 103.95C150.159 104.026 150.726 103.988 151.369 103.837L151.709 105.236L130.042 139.684L125.24 145.697L122.895 153.562L123.349 153.449L125.693 152.466L124.937 155.529L125.164 156.436L125.807 157.23C125.504 157.306 125.391 157.495 125.466 157.835L125.58 158.327L126.563 158.1C128 156.852 128.605 155.718 128.378 154.697C129.928 154.961 130.949 155.075 131.479 154.924L131.592 155.415C130.647 155.642 130.155 156.398 130.08 157.684L130.193 158.175L130.723 158.062C138.588 149.478 157.873 120.097 173.339 100.169C172.847 98.014 180.902 95.026 197.54 91.169L198.069 91.056C198.674 93.665 197.389 99.98 194.212 110.001C192.17 116.051 191.187 119.378 191.338 119.908C188.691 127.962 187.443 132.311 187.595 132.991L181.696 152.314C177.876 162.222 174.965 172.62 172.923 183.586C173.263 183.511 173.793 183.549 174.549 183.738L175.381 183.019C175.456 183.36 175.683 183.473 176.024 183.397L175.683 181.998L178.255 181.923C179.011 181.734 179.654 180.788 180.183 179.049C180.07 176.44 180.599 175.041 181.771 174.738C183.359 168.537 184.343 165.436 184.683 165.322C186.158 159.159 187.254 155.642 187.973 154.772C190.204 146.756 191.83 142.634 192.889 142.369L193.116 143.352L191.49 147.55C188.653 160.142 185.78 170.087 182.868 177.385L183.7 181.015L184.229 180.902C191.263 165.776 201.397 135.827 214.594 91.056C214.972 87.123 216.863 84.06 220.228 81.905L219.472 81.111L219.358 80.695C220.871 80.354 221.93 79.75 222.535 78.918C222.459 78.577 221.136 78.086 218.564 77.405L225.144 49.196C226.581 47.91 227.413 47.23 227.677 47.23L227.791 48.666C227.451 48.704 226.921 48.893 226.316 49.309L227.564 51.087C229.833 48.629 232.291 46.511 234.975 44.734C236.337 45.112 237.017 45.566 237.093 46.019L238.076 45.944C245.563 40.461 252.899 36.528 260.122 34.146L260.197 35.091C258.874 37.095 257.966 38.116 257.475 38.154C257.55 38.835 257.739 39.44 258.08 39.969C258.193 41.217 254.941 49.536 248.286 64.964C233.085 100.698 220.341 127.13 209.98 144.298C210.018 144.638 210.245 145.092 210.661 145.697C213.195 145.092 214.821 144.449 215.464 143.844L215.917 143.806L215.993 144.751L217.052 144.676L217.997 144.184C218.035 144.449 218.375 144.562 219.018 144.525L219.094 145.546C219.169 146.453 218.64 147.89 217.468 149.856C216.371 151.029 215.237 153.487 214.027 157.23L214.064 157.722L215.048 157.646C219.169 153.033 222.308 148.495 224.463 144.033C236.526 140.479 245.715 137.037 252.067 133.634C258.534 133.067 263.411 131.403 266.739 128.605L266.701 128.113L264.243 128.832L263.714 128.87L263.676 128.378C268.365 127.697 271.655 126.639 273.432 125.24C282.583 118.206 289.503 113.177 294.192 110.227C308.788 99.602 315.595 89.392 314.763 79.598ZM312.267 80.241L312.607 84.06C312.154 85.006 311.662 85.497 311.208 85.535L310.641 79.031C311.7 79.409 312.229 79.787 312.267 80.241ZM25.94 49.461L25.298 49.498L25.184 48.326L27.793 48.099L27.831 48.704C27.415 48.742 26.772 48.969 25.94 49.461ZM13.197 176.931C11.685 176.25 10.323 175.986 9.151 176.099L9 174.246C8.924 173.528 9.34 173.036 10.248 172.847C11.079 172.772 11.571 173.377 11.647 174.587C13.84 171.902 15.05 170.541 15.277 170.503L16.676 171.07C16.222 174.851 15.05 176.78 13.197 176.931ZM149.365 34.486C148.722 34.562 147.436 32.558 145.584 28.587L145.47 27.415C146.68 27.302 147.928 29.268 149.251 33.314L149.365 34.486ZM147.55 20.382L147.02 21.63L128.529 13.915C140.857 14.331 147.21 16.487 147.55 20.382ZM69.464 87.426L66.855 87.653L66.742 86.48L69.351 86.253L69.464 87.426ZM67.346 47.154L67.989 47.116L68.141 48.969C67.536 49.007 66.742 49.914 65.758 51.654L65.645 50.368C66.817 48.969 67.422 47.91 67.346 47.154ZM61.863 60.086L62.09 62.544L61.448 62.582L61.221 60.124L61.863 60.086ZM58.99 64.7L60.238 64.586C60.124 66.628 59.557 67.725 58.536 67.8L57.893 67.838C58.687 66.477 59.065 65.418 58.99 64.7ZM56.834 71.128L57.553 71.052L57.59 71.657L56.418 73.624L55.17 73.737L55.133 73.132C56.381 73.019 56.948 72.376 56.834 71.128ZM54.717 76.914L54.339 80.014L53.696 80.052L53.431 76.989L54.717 76.914ZM33.503 137.227C32.671 141.462 31.764 143.617 30.818 143.693L30.781 143.088C30.554 141.008 31.461 139.042 33.503 137.227ZM29.608 145.659L29.646 146.264C29.722 147.096 29.344 147.588 28.512 147.625L28.474 147.02C28.398 146.302 28.776 145.848 29.608 145.659ZM28.474 163.167L30.44 162.978L30.516 163.659C30.024 163.696 29.381 163.961 28.587 164.415L27.339 164.528C27.264 163.885 27.68 163.394 28.474 163.167ZM84.438 145.886C73.397 151.331 66.893 155.037 64.964 156.965C53.015 161.125 47.078 163.696 47.192 164.717C36.566 168.915 29.57 172.015 26.205 173.944C25.411 174.019 24.277 173.717 22.764 173.036C22.575 170.881 23.558 169.141 25.638 167.742C27.491 167.591 29.268 167.856 30.97 168.574C32.936 167.553 36.377 166.419 41.255 165.209L41.142 163.923L37.209 164.263C37.7 163.583 41.482 161.806 48.591 158.932L50.557 158.743L50.595 159.348C47.23 159.65 45.377 160.633 44.961 162.411C45.036 163.205 45.49 163.545 46.322 163.469C48.856 161.881 50.103 160.936 50.066 160.671C54.868 159.764 68.141 152.806 89.884 139.836L89.997 141.008C90.035 141.575 88.182 143.163 84.438 145.886ZM51.087 156.852C54.263 156.587 56.986 155.302 59.254 153.071C60.162 152.995 60.654 153.335 60.691 154.129C59.141 154.281 56.154 155.566 51.805 158.062L51.162 158.1L51.087 156.852ZM104.896 115.521L88.22 128.756C75.817 136.886 69.162 140.97 68.178 141.046C48.44 151.898 36.15 157.533 31.386 157.949L30.667 158.024C31.272 155.793 40.045 137.832 57.061 104.026C64.548 103.383 76.346 99.904 92.417 93.552L96.35 93.211C104.48 92.493 110.568 94.081 114.576 97.862L114.803 100.32C111.816 108.98 108.488 114.047 104.896 115.521ZM72.3 97.182L74.985 96.955L75.023 97.56L72.338 97.787L72.3 97.182ZM110.001 90.791L111.967 90.602C113.782 91.472 114.727 92.228 114.803 92.909L114.841 93.514C113.101 93.665 111.475 92.757 110.001 90.791ZM115.332 60.427C113.593 62.506 108.828 66.061 101.039 71.052C98.467 71.279 88.9 74.985 72.338 82.245C71.506 81.867 70.636 81.716 69.691 81.791L69.578 80.619C69.389 78.237 70.447 75.25 72.792 71.62C74.077 64.813 75.477 60.918 77.027 59.973L90.829 28.928C90.678 26.999 93.627 25.524 99.677 24.503L101.644 24.314L101.795 26.092C107.732 25.184 111.437 24.655 112.874 24.541C123.841 23.596 129.55 25.827 130.004 31.159L131.252 31.045L130.987 27.907L132.349 27.793C135.563 29.57 137.302 31.726 137.529 34.259C137.68 35.999 136.735 38.154 134.731 40.726C133.899 40.801 133.407 40.196 133.332 38.986L131.97 39.1L131.668 42.881C126.109 51.2 122.063 55.473 119.568 55.7C117.299 58.838 115.9 60.389 115.332 60.427ZM123.803 82.17C122.668 81.413 121.761 81.073 121.08 81.111L120.929 79.258L122.177 79.144L124.937 80.771C125.051 81.64 124.672 82.094 123.803 82.17ZM132.576 92.568C133.786 93.06 134.504 93.589 134.655 94.081L134.05 94.232L134.088 94.27C133.975 94.27 133.823 94.308 133.71 94.346L132.802 95.064L132.576 92.568ZM133.407 97.787L133.294 97.295L134.882 96.917L134.996 97.409L133.407 97.787ZM137.227 102.06C138.853 101.795 139.647 101.682 142.672 101.001L142.785 101.492L137.038 102.816C137.113 102.551 137.189 102.287 137.227 102.06ZM142.823 104.442C140.403 104.669 140.932 104.366 137.075 105.236L136.962 104.744L141.802 103.194L144.109 102.665L144.336 103.572C143.277 103.799 144.033 103.799 142.823 104.442ZM147.928 103.232C147.361 103.383 146.907 103.119 146.642 102.476L148.117 102.135C148.76 101.984 149.176 102.249 149.327 102.892L147.928 103.232ZM161.768 88.333L161.654 87.842L164.037 87.274L164.264 88.182L161.768 88.333ZM176.553 179.011C176.704 178.33 176.742 177.839 176.666 177.498L177.196 177.385C177.839 177.234 178.217 177.461 178.368 178.066L178.482 178.557L176.553 179.011ZM186.914 92.228L185.855 92.039C184.154 92.72 182.717 93.211 181.544 93.476L180.561 93.703C179.994 93.854 179.54 93.627 179.313 93.022L186.233 91.434L188.502 90.375L189.259 91.245C188.162 91.472 187.368 91.812 186.914 92.228ZM192.246 90.526L192.132 90.035C192.473 89.959 192.926 89.695 193.418 89.203L198.334 88.068L198.447 88.56C195.838 89.203 193.758 89.846 192.246 90.526ZM193.002 80.581C192.662 80.657 192.208 80.959 191.641 81.413C191.565 81.073 190.885 81.073 189.599 81.375C189.372 80.43 193.002 79.107 200.527 77.367L201.586 77.14L201.813 78.048C196.519 79.598 193.569 80.468 193.002 80.581ZM206.237 66.288C205.708 72.3 203.59 75.703 199.846 76.573L199.733 76.082L196.405 77.367L194.931 77.708C194.174 77.897 193.494 77.859 192.889 77.67L192.586 76.346C192.473 75.855 197.275 69.199 207.031 56.418L208.165 56.607C208.581 58.347 207.939 61.561 206.237 66.288ZM229.644 46.246L229.19 46.284L229.114 45.339L231.081 45.15L231.118 45.641C230.778 45.717 230.287 45.906 229.644 46.246ZM220.001 143.088C218.867 142.558 217.846 142.331 216.976 142.407L216.863 140.97C216.825 140.479 217.127 140.138 217.77 139.949C218.413 139.874 218.791 140.327 218.867 141.31C220.493 139.231 221.4 138.172 221.589 138.172L222.61 138.588C222.232 141.462 221.363 142.974 220.001 143.088ZM323.384 34.94C322.893 34.978 321.947 33.465 320.473 30.402L320.397 29.457C321.342 29.381 322.326 30.856 323.309 33.881L323.384 34.94ZM322.023 24.125L321.569 25.108L307.578 19.247C316.918 19.55 321.758 21.176 322.023 24.125ZM262.693 75.061L260.727 75.25L260.651 74.304L262.617 74.115L262.693 75.061ZM261.067 44.469L261.596 44.431L261.71 45.868C261.218 45.906 260.613 46.587 259.895 47.91L259.819 46.965C260.689 45.868 261.105 45.036 261.067 44.469ZM256.945 54.301L257.097 56.154L256.567 56.192L256.416 54.339L256.945 54.301ZM254.714 57.817L255.697 57.742C255.584 59.33 255.168 60.162 254.45 60.237L253.92 60.275C254.487 59.217 254.752 58.385 254.714 57.817ZM253.126 62.658L253.58 62.62L253.618 63.111L252.748 64.624L251.765 64.7L251.727 64.208C252.748 64.132 253.202 63.603 253.126 62.658ZM251.538 67.044L251.198 69.464L250.744 69.502L250.555 67.12L251.538 67.044ZM235.391 112.912C234.749 116.089 234.068 117.715 233.349 117.79L233.312 117.374C233.198 115.786 233.879 114.273 235.391 112.912ZM232.404 119.303L232.442 119.719C232.518 120.399 232.215 120.777 231.534 120.815L231.497 120.324C231.459 119.832 231.761 119.492 232.404 119.303ZM231.572 132.613L233.085 132.5L233.122 132.991C232.782 133.029 232.253 133.218 231.648 133.559L230.665 133.634C230.627 133.105 230.929 132.765 231.572 132.613ZM274.037 119.492C265.718 123.614 260.764 126.412 259.214 127.849C250.139 131.025 245.639 132.991 245.715 133.785C237.66 137 232.366 139.306 229.871 140.781C229.266 140.819 228.396 140.592 227.261 140.063C227.11 138.437 227.866 137.113 229.455 136.13C230.892 136.017 232.253 136.206 233.501 136.735C235.013 135.979 237.622 135.147 241.328 134.201L241.253 133.256L238.19 133.521C238.568 132.991 241.479 131.63 246.887 129.437L248.399 129.323L248.437 129.739C245.866 129.966 244.429 130.723 244.126 132.084C244.164 132.689 244.542 132.991 245.185 132.916C247.076 131.668 247.983 130.949 247.983 130.723C251.614 130.08 261.672 124.786 278.197 114.879L278.272 115.824C278.272 116.202 276.873 117.412 274.037 119.492ZM248.702 127.811C251.16 127.584 253.24 126.639 254.979 124.975C255.622 124.937 256 125.202 256.038 125.807C254.903 125.92 252.672 126.866 249.307 128.681L248.778 128.718L248.702 127.811ZM289.617 96.388L277.025 106.522C267.609 112.685 262.504 115.786 261.71 115.862C246.736 124.105 237.433 128.378 233.765 128.681L233.236 128.718C233.69 127.017 240.383 113.366 253.315 87.728C258.949 87.237 267.874 84.552 280.125 79.712L283.188 79.447C289.352 78.918 293.965 80.128 296.99 83.039L297.142 84.892C294.835 91.396 292.339 95.215 289.617 96.388ZM264.886 82.472L266.853 82.283L266.89 82.775L264.924 82.964L264.886 82.472ZM293.511 77.594L295.024 77.481C296.423 78.161 297.142 78.766 297.179 79.258L297.217 79.674C295.894 79.787 294.646 79.107 293.511 77.594ZM297.482 54.565C296.158 56.154 292.566 58.876 286.705 62.658C284.739 62.847 277.478 65.645 264.924 71.09C264.319 70.863 263.638 70.788 262.92 70.825L262.844 69.88C262.693 68.065 263.487 65.796 265.227 63.036C266.21 57.817 267.306 54.906 268.441 54.225L278.991 30.629C278.877 29.23 281.108 28.096 285.646 27.226L287.159 27.113L287.272 28.549C291.734 27.831 294.532 27.415 295.667 27.302C303.986 26.583 308.334 28.247 308.675 32.331L309.658 32.255L309.469 29.986L310.452 29.911C312.872 31.234 314.158 32.822 314.309 34.713C314.422 36.074 313.742 37.738 312.305 39.667C311.662 39.742 311.284 39.289 311.208 38.305L310.225 38.381L309.923 41.217C305.725 47.608 302.662 50.897 300.734 51.049C299.032 53.355 297.973 54.528 297.482 54.565ZM301.906 70.296L301.793 68.859L302.776 68.784L304.893 70.069C304.931 70.674 304.629 71.015 303.986 71.09C303.078 70.523 302.398 70.258 301.906 70.296ZM125.882 162.146L124.899 162.373L124.067 163.091C124.219 163.696 124.597 163.923 125.24 163.772C125.882 163.621 126.147 163.243 125.996 162.638L125.882 162.146ZM122.139 154.697L122.252 155.188C122.895 155.037 123.16 154.659 123.009 154.054L122.895 153.562C122.29 153.713 122.025 154.092 122.139 154.697ZM148.911 104.404L149.63 103.95C149.478 103.95 149.365 103.912 149.251 103.875C148.987 103.95 148.873 104.139 148.911 104.404ZM148.76 91.358L149.894 91.094L149.667 90.11L148.533 90.375L148.76 91.358ZM415.991 129.55L413.419 129.248L412.965 130.231L413.003 130.723L428.318 129.437L428.242 128.492L415.991 129.55ZM429.982 128.378L430.057 129.323H430.208L430.133 128.378H429.982ZM494.227 119.983L494.303 120.929L495.967 121.231L495.891 120.286L494.227 119.983ZM491.883 120.172C480.388 122.744 478.951 122.29 476.531 122.479L476.606 123.424L477.665 123.349L478.232 123.311L478.081 123.198L479.329 122.706C490.711 121.458 492.034 121.912 491.921 120.626L491.883 120.172ZM422.873 103.459L421.852 103.119C421.02 105.349 420.604 106.673 420.642 107.051L420.679 107.467C421.474 107.429 422.192 106.068 422.873 103.459ZM409.033 96.01L408.995 95.518L408.466 95.556L407.52 96.161L408.05 97.068C408.768 96.993 409.108 96.652 409.033 96.01ZM439.095 127.092L439.019 126.147L438.717 126.185L438.792 127.13L439.095 127.092ZM501.488 113.026L502.206 112.95C502.622 112.912 502.811 112.572 502.773 111.967L502.357 111.059C499.748 111.286 498.538 111.4 496.421 112.572L496.383 112.08L493.244 112.383C493.169 111.437 492.904 110.946 492.488 110.984L490.862 111.135C488.971 111.286 488.064 111.211 487.118 111.929C487.081 111.589 486.967 111.437 486.778 111.437L484.963 111.589L483.904 112.194C483.866 111.853 483.753 111.702 483.564 111.702L482.921 112.269L482.883 111.778L480.35 111.589L479.745 111.627L479.82 112.572L481.106 112.912L482.316 112.837C482.732 113.101 483.186 113.177 483.715 113.139L484.774 112.61L484.812 113.026C478.875 114.5 478.913 114.236 474.829 114.916C474.375 114.614 474.035 114.463 473.808 114.5L473.732 114.576C473.279 114.538 473.014 114.236 472.976 113.744L475.094 113.479C475.245 113.479 475.358 113.631 476.53 113.858C478.232 113.026 478.308 112.685 479.215 112.61L479.14 111.664C473.316 112.799 475.661 112.042 468.363 112.685L468.022 112.723L467.947 111.778C477.325 110.643 474.186 111.286 477.4 110.379C477.438 110.719 477.552 110.87 477.741 110.87C478.119 110.492 478.535 110.303 479.026 110.227L479.669 110.19C482.959 109.925 484.056 110.568 490.56 108.753L490.597 109.169L491.656 108.639L492.639 108.564C492.564 107.618 494.001 107.467 494.492 107.429L494.417 106.408C482.997 108.715 480.009 108.072 476.833 108.98L476.795 108.564C473.808 109.093 473.695 108.866 472.938 108.904C472.711 108.942 472.371 109.131 471.993 109.509C471.955 109.169 471.842 109.017 471.615 109.017C471.501 109.017 471.464 109.055 471.426 109.055L461.745 110.643C461.708 110.379 461.594 110.227 461.367 110.265C456.338 111.324 457.699 111.513 450.968 112.118C450.666 112.156 450.25 112.307 449.721 112.647C449.683 112.383 449.531 112.232 449.191 112.269L445.069 112.61L442.309 113.29C442.271 113.026 442.12 112.874 441.78 112.912C440.229 113.328 438.868 113.593 437.771 113.668H437.696C437.015 113.744 438.036 113.479 437.507 113.253L436.675 113.744C435.465 113.858 436.108 113.668 431.948 113.706C424.65 114.614 425.444 114.727 424.65 114.765L421.927 114.576C421.965 114.841 421.814 115.03 421.511 115.03C418.411 114.614 416.823 114.122 416.785 113.555C417.201 110.606 417.919 109.093 418.94 109.017L419.47 108.98L419.016 109.963L419.545 109.925C420.528 109.395 420.982 108.904 420.944 108.45L420.869 107.429L419.885 107.505L419.81 106.559C419.734 105.841 419.848 105.198 420.112 104.669L422.343 101.076L422.419 102.022L423.478 101.946L423.402 101.001L422.797 100.131C423.591 99.45 424.196 99.072 424.688 99.034L424.65 98.543L423.213 98.656L423.1 97.219C425.974 91.245 427.335 87.766 427.259 86.783L428.28 87.199C428.923 87.161 429.225 86.783 429.188 86.102L428.204 86.178L428.167 85.762C428.091 85.043 428.242 84.363 428.545 83.758C430.095 82.132 430.814 80.506 430.662 78.804C430.965 78.766 431.116 78.918 431.154 79.258C432.478 78.502 433.499 76.497 434.255 73.17C436.599 68.935 439.927 60.464 444.275 47.797C452.595 25.411 452.254 23.029 453.426 17.735L452.443 17.81C452.519 18.491 452.368 19.134 452.065 19.739C451.384 19.474 450.855 19.323 450.477 19.361L450.439 18.945C450.288 17.016 451.082 14.71 452.897 11.987L453.351 11.949L454.183 15.201L455.166 15.126C455.128 14.899 455.393 13.613 455.922 11.231C455.884 10.739 455.506 10.437 454.75 10.399L453.805 11.004C453.729 10.323 453.767 8.546 453.88 5.71L453.388 5.748C452.557 4.916 452.141 4.235 452.103 3.668L446.695 4.197C446.658 3.819 446.469 3.252 446.09 2.533C446.053 2.042 447.263 1.55 449.758 1.059L450.855 1.475L451.876 0.87C451.914 1.21 452.103 1.361 452.481 1.323L453.502 0.718C453.54 1.059 453.729 1.21 454.107 1.172L454.599 1.134L454.523 0.038C453.767 0.113 451.763 0.113 448.586 0L447.565 0.681L447.527 0.076C422.154 2.155 407.747 3.328 404.306 3.668C403.852 3.706 402.075 3.668 398.937 3.592C398.974 4.008 398.596 4.235 397.84 4.311L396.743 3.819L393.038 4.765C392.168 4.84 390.693 4.802 388.651 4.575C388.084 5.029 387.403 5.294 386.571 5.37C386.118 5.407 391.979 5.067 397.424 4.689C396.857 5.143 395.987 5.407 394.777 5.521C393.945 5.596 393.227 5.483 392.622 5.143C391.79 5.521 389.105 6.126 384.605 7.033L383.509 6.617L365.812 9.34C365.131 9 364.337 8.886 363.429 8.962C362.484 9.037 360.896 9.378 358.703 9.983L350.157 13.537L350.799 14.596C351.215 14.558 351.82 14.331 352.539 13.915L355.564 14.18L355.186 17.016C352.388 18.264 350.762 20.117 350.308 22.461C346.111 24.314 344.031 25.638 344.031 26.432L344.069 26.923L344.711 26.886L345.846 26.281L347.169 27.869L347.358 30.062C347.434 30.743 340.363 45.603 326.22 74.645C313.969 102.627 307.54 117.942 306.935 120.702C302.738 121.874 300.318 123.576 299.599 125.845C299.675 126.563 300.923 127.055 303.343 127.244L303.456 128.34L302.36 130.155L302.549 132.349C302.662 133.483 305.725 134.353 311.738 134.958C311.7 134.58 311.889 134.353 312.305 134.315C312.418 135.676 312.04 138.323 311.17 142.256L311.813 142.218C314.309 138.815 315.481 136.47 315.368 135.185L315.897 135.147C316.502 135.109 317.145 135.79 317.901 137.264C317.145 137.567 314.498 143.579 309.96 155.339L310.603 156.398L311.246 156.36C316.805 142.294 320.284 134.504 321.72 133.029C329.019 132.386 341.648 131.101 359.572 129.172L360.707 128.491C360.744 128.87 360.971 129.059 361.387 129.021L362.56 128.907L363.694 128.227C363.732 128.605 363.959 128.794 364.375 128.756L377.95 127.584C381.542 127.281 383.244 126.185 383.092 124.332C383.055 123.84 385.172 123.273 389.445 122.668C389.861 122.63 390.466 122.744 391.298 123.008C391.26 122.668 393.416 122.328 397.727 121.95C397.84 119.681 398.558 118.471 399.844 118.357L399.731 117.261C398.521 117.374 397.159 117.677 395.571 118.206C392.735 118.055 390.92 117.828 390.164 117.563C389.407 117.979 388.84 118.206 388.424 118.244L378.971 118.546L377.836 119.151C377.798 118.811 377.572 118.66 377.156 118.698L376.626 118.735L375.416 119.341C375.378 119 374.395 118.735 372.429 118.471L371.219 119.189L368.875 119.378L368.837 118.773C381.013 117.45 387.025 115.786 386.874 113.82C387.668 113.744 388.084 114.122 388.159 114.916L391.714 114.009L391.601 112.912L362.446 113.706C362.484 114.084 362.295 114.311 361.879 114.349L358.324 114.047C357.417 114.122 356.661 114.387 356.056 114.841L354.732 114.349C351.064 114.652 348.341 115.105 346.526 115.673C344.031 115.484 341.27 115.521 338.207 115.786L331.666 116.353L328.641 116.013C328.489 114.084 332.233 104.593 339.947 87.577C342.178 81.829 344.22 78.237 346.186 76.876C346.602 76.838 347.207 76.989 348.039 77.329L352.69 75.741L355.072 76.119C359.081 75.779 363.732 74.645 369.064 72.678C370.387 72.565 371.37 72.641 372.089 72.943L375.643 72.111L386.231 71.203C390.731 70.825 395.609 69.842 400.903 68.216L400.789 67.12C398.823 67.309 397.802 66.968 397.727 66.174C397.613 64.7 396.176 64.094 393.416 64.321L393.302 63.225L396.214 62.393L403.852 61.75L403.739 60.654C403.436 60.691 401.886 60.654 399.012 60.54L398.899 59.368L401.848 59.103C402.642 59.028 402.983 58.649 402.907 57.893C398.937 58.006 396.932 57.817 396.895 57.288C369.215 58.649 355.337 58.914 355.262 58.044C354.846 58.082 354.278 58.347 353.522 58.801L352.804 57.666C360.139 42.087 364.45 34.221 365.698 34.108C365.736 34.713 365.433 35.696 364.79 37.02L364.828 37.511L366.001 37.398C368.912 30.44 371.37 26.848 373.412 26.697C382.109 25.94 372.202 25.373 390.807 22.461C391.563 22.802 392.092 22.953 392.47 22.915C399.768 21.44 409.94 19.89 422.986 18.302L422.91 17.205L415.953 17.848L415.877 16.751C416.709 16.676 417.39 16.411 417.957 15.957L417.995 16.562C418.373 16.525 418.902 16.26 419.583 15.806C420.793 15.693 421.7 15.806 422.343 16.146C424.763 15.504 426.73 15.125 428.167 14.974L432.515 14.558C433.574 13.878 434.066 13.273 434.028 12.705L433.99 12.214C432.893 12.327 431.646 12.252 430.171 11.987C430.133 11.382 430.435 10.966 431.154 10.777L439.246 10.021L442.952 9.075C442.99 9.491 443.179 9.642 443.481 9.642C443.859 9.605 444.389 9.34 445.069 8.886C445.259 8.924 445.485 8.924 445.674 8.962C445.183 9.983 444.616 11.458 444.048 13.386L442.99 13.462C442.914 12.743 442.725 12.1 442.385 11.533L441.855 11.571C432.024 38.948 427.637 51.692 418.562 72.716C416.898 78.086 415.499 81.073 414.289 81.716C414.327 82.321 414.705 82.623 415.348 82.548C415.575 85.195 414.97 87.804 413.495 90.375C409.297 102.476 406.499 109.093 405.062 110.303L406.008 116.013C406.045 116.618 405.743 116.958 405.1 117.034L404.117 117.11C403.966 115.521 403.398 114.765 402.378 114.879L401.848 114.916C400.562 116.92 399.579 119.227 398.937 121.912L399.92 121.836C401.243 120.967 401.848 119.946 401.735 118.773L403.701 118.584L404.835 119C403.928 120.437 403.512 121.572 403.588 122.441L404.117 123.349L402.831 126.374L402.869 126.866C404.004 126.752 405.251 127.13 406.575 127.924C407.482 127.849 408.466 127.433 409.562 126.714C410.697 126.601 414.932 126.563 422.23 126.563L425.898 125.315C430.36 125.277 431.078 125.391 434.935 125.05L436.523 124.899L437.355 124.332L437.393 124.824C441.439 124.483 441.704 124.748 444.88 125.126L444.918 125.618L442.687 125.807L442.763 126.752C443.443 126.676 444.048 126.487 444.54 126.071C445.107 126.034 445.447 126.336 445.485 127.017C444.578 127.092 443.557 127.319 442.422 127.697L441.439 127.357C439.889 127.773 440.229 127.886 439.17 127.962L437.62 127.66C437.658 127.924 437.507 128.113 437.242 128.113C437.28 128.718 437.62 129.021 438.187 128.983L439.775 128.832L448.057 128.113L451.195 127.433C451.233 127.697 451.346 127.849 451.611 127.811L453.124 127.244L455.96 127.017C458.153 126.828 458.115 126.676 462.88 125.92C462.842 125.618 462.955 125.504 463.182 125.466L463.22 125.882C470.972 124.559 471.463 124.483 472.711 124.067L472.825 124.294C474.753 123.84 473.657 123.954 474.186 123.576C474.224 123.916 474.337 124.067 474.526 124.067L475.888 123.954L475.812 122.933L473.052 122.895L473.014 122.819C472.9 122.857 472.825 122.857 472.711 122.895H472.333V122.971C470.48 123.349 470.442 123.084 469.232 123.198L462.312 123.576L462.275 123.084L466.132 122.555L467.531 122.441L468.325 121.874L468.363 122.366C473.808 121.912 475.736 123.273 500.92 117.904C502.282 117.79 502.168 116.656 503.038 114.311C502.584 114.349 502.13 114.236 501.715 114.009C499.635 114.803 498.538 114.425 494.53 115.068C494.19 115.106 493.925 114.803 493.811 114.198L493.773 113.782L497.63 113.895C498.349 113.82 499.748 113.706 501.828 112.534C501.828 112.874 501.034 113.063 501.487 113.026H501.488ZM315.292 116.013L313.515 116.164C313.439 115.446 314.385 112.723 316.351 108.072L317.523 107.959C317.561 109.055 316.842 111.74 315.292 116.013ZM317.448 107.391L317.41 106.9C317.372 106.295 317.75 105.879 318.582 105.69L318.62 106.181C318.658 106.9 318.279 107.316 317.448 107.391ZM341.081 125.655L341.119 126.147L338.17 126.412L338.132 125.92L341.081 125.655ZM337.527 125.353C337.565 125.958 336.657 126.639 334.691 127.319L331.06 127.055L329.888 127.168L329.775 126.071L337.527 125.353ZM361.425 15.352L359.648 15.504L359.61 14.899C359.572 14.294 359.913 13.878 360.669 13.689L361.312 13.651L362.522 14.142C362.559 14.861 362.219 15.277 361.425 15.352ZM388.462 10.058L389.029 10.021L389.105 11.117L387.479 11.268C387.441 10.663 387.743 10.248 388.462 10.058ZM381.655 12.441L378.971 12.138L378.933 11.647C382.45 11.344 383.622 10.966 385.777 10.361C385.815 10.777 386.193 10.928 386.874 10.853L386.949 11.949L385.891 12.063C385.059 12.138 384.34 12.025 383.735 11.684C383.092 12.1 382.412 12.365 381.655 12.441ZM385.021 22.235L384.983 21.743L389.332 21.327L389.37 21.819L385.021 22.235ZM389.672 18.453L389.634 17.848L391.752 17.659L391.79 18.264L389.672 18.453ZM390.164 11.042L389.596 11.079L390.088 9.907L394.928 9.453L394.966 10.058C393.718 10.172 392.092 10.512 390.164 11.042ZM392.622 21.478L392.546 20.382L394.664 20.193C395.382 20.117 395.76 20.457 395.798 21.214L392.622 21.478ZM405.44 4.008L402.718 4.765L402.226 4.802C400.941 4.916 399.277 4.878 397.31 4.689C400.827 4.462 404.193 4.197 405.44 4.008ZM402.529 16.109L402.567 16.6L398.823 16.941L398.785 16.449L402.529 16.109ZM408.655 19.02C408.617 18.567 407.898 18.264 406.424 18.113L402.68 19.172L399.806 19.285C399.163 18.831 398.823 18.529 398.785 18.302L402.113 18.491L409.6 17.281L413.419 17.432L413.457 18.037C411.566 18.226 409.978 18.567 408.655 19.02ZM447.187 9.075C447.641 9.113 447.943 9.113 448.057 9.113C449.38 7.827 450.855 6.806 452.557 6.088C451.195 12.063 449.078 16.487 446.166 19.361L444.048 18.075C445.826 13.575 446.885 10.588 447.187 9.075ZM440.683 20.23L441.212 20.193C440.494 21.554 439.851 22.272 439.322 22.31L439.208 20.873C439.549 20.873 440.04 20.646 440.683 20.23ZM436.486 30.251C437.507 26.167 438.49 23.861 439.397 23.256L439.435 23.747C438.906 27.528 438.074 29.533 436.977 29.684L437.166 32.066C436.259 33.352 435.843 34.335 435.88 35.091L435.351 35.129L435.049 31.839C435.654 31.764 436.145 31.234 436.486 30.251ZM434.86 35.696C434.897 36.263 434.519 37.587 433.763 39.629L433.234 39.667L433.12 38.23C433.839 36.566 434.444 35.734 434.859 35.696H434.86ZM404.344 124.256L404.306 123.84L405.289 123.765L405.403 125.202C404.873 125.24 404.495 124.937 404.344 124.256ZM447.943 125.391C447.905 125.05 447.754 124.899 447.414 124.937L444.956 125.164L444.918 124.672H445.145L450.968 124.181L451.006 124.672C449.305 124.748 448.284 125.013 447.943 125.391ZM445.032 124.181C445.259 124.294 445.145 124.408 445.032 124.483C444.918 124.445 444.767 124.332 445.032 124.181ZM445.334 117.374L442.082 117.639L442.044 117.147L444.994 116.883L447.565 116.24C447.603 116.542 447.754 116.656 448.095 116.618C451.158 116.089 450.855 115.937 452.33 115.824C452.821 115.786 453.124 116.089 453.162 116.694L445.334 117.374ZM456.716 116.391C454.901 116.202 454.788 116.051 453.502 116.164L453.464 115.748L456.376 115.484L456.414 115.9C456.111 115.937 457.208 116.013 456.716 116.391ZM456.943 115.862L456.905 115.446L458.493 115.294L458.531 115.71L456.943 115.862ZM460.46 115.559L460.422 115.143C460.687 115.106 461.065 114.916 461.556 114.538C462.35 114.463 462.766 114.992 462.842 115.597L460.46 115.559ZM464.96 114.992L464.922 114.5L466.85 114.349L466.888 114.841L464.96 114.992ZM467.644 114.765C467.607 114.198 467.833 113.858 468.325 113.782L468.968 114.614C468.93 114.349 469.043 114.198 469.27 114.16L469.762 115.068L467.644 114.765ZM504.853 110.379L504.891 110.341V110.303C504.891 110.303 504.853 110.341 504.853 110.379ZM505.534 109.887C505.836 109.698 505.988 109.509 505.269 109.396C504.929 109.774 505.647 109.887 504.891 109.925L504.929 110.265C505.004 110.19 505.194 110.076 505.345 109.963L504.929 110.303V110.341L504.135 111.362L505.723 110.795H505.912L505.836 109.849L505.534 109.887ZM508.294 112.043L507.992 112.08L508.067 113.026L510.298 112.837C510.261 112.232 508.786 112.043 508.294 112.043Z" fill="#F9DC3E"/>
</g>
<defs>
<clipPath id="clip0_2_14333">
<rect width="512" height="200" fill="white"/>
</clipPath>
</defs>
</svg>
