<svg width="512" height="217" viewBox="0 0 512 217" fill="none" xmlns="http://www.w3.org/2000/svg">
<path d="M175.374 43.9898L107.371 3.61537C99.2884 -1.20512 89.2134 -1.20512 81.1309 3.61537L13.1139 43.9898C4.93238 48.9255 -0.0488664 57.8018 0.00036152 67.3566V148.092C-0.0440611 157.642 4.93656 166.512 13.1139 171.445L81.1173 211.806C89.2006 216.624 99.274 216.624 107.357 211.806L175.361 171.445C183.548 166.513 188.534 157.636 188.488 148.078V67.3566C188.537 57.8018 183.556 48.9255 175.374 43.9898Z" fill="white"/>
<path d="M175.374 43.9898L107.371 3.61537C99.2884 -1.20512 89.2134 -1.20512 81.1309 3.61537L13.1139 43.9898C4.93238 48.9255 -0.0488664 57.8018 0.00036152 67.3566V148.092C-0.0440611 157.642 4.93656 166.512 13.1139 171.445L81.1173 211.806C89.2006 216.624 99.274 216.624 107.357 211.806L175.361 171.445C183.548 166.513 188.534 157.636 188.488 148.078V67.3566C188.537 57.8018 183.556 48.9255 175.374 43.9898ZM83.5003 207.68L15.4969 167.319C8.77672 163.247 4.68357 155.95 4.71204 148.092V67.3566C4.68086 59.4983 8.77471 52.1996 15.4969 48.1294L83.5003 7.75494C90.1187 3.80651 98.3696 3.80651 104.988 7.75494L172.937 48.1294C178.538 51.5221 182.359 57.2115 183.381 63.68C181.121 58.8732 176.042 57.5524 170.118 60.9566L105.832 100.773C97.8118 105.443 91.902 110.713 91.8884 120.381V199.66C91.8884 205.447 94.2169 209.192 97.8118 210.295C96.6346 210.51 95.4409 210.624 94.2441 210.635C90.4625 210.632 86.7514 209.612 83.5003 207.68Z" fill="#2F3A3E"/>
<path d="M157.55 155.895L140.61 166.026C140.156 166.208 139.852 166.64 139.834 167.129V171.581C139.834 172.126 140.202 172.344 140.651 172.085L157.849 161.627C158.27 161.312 158.472 160.781 158.367 160.266V156.358C158.353 155.854 157.958 155.636 157.55 155.895Z" fill="#3AB14A"/>
<path d="M121.492 118.597C122.036 118.325 122.486 118.597 122.499 119.373L122.554 125.283C124.591 124.357 126.864 124.082 129.063 124.493C129.485 124.602 129.662 125.174 129.499 125.855L128.205 131.043C128.107 131.434 127.905 131.792 127.619 132.078C127.519 132.177 127.404 132.259 127.279 132.323C127.125 132.406 126.948 132.435 126.775 132.405C124.631 131.93 122.386 132.29 120.498 133.412C117.737 134.656 115.932 137.371 115.854 140.398C115.854 143.121 117.216 143.87 121.968 143.952C128.246 144.061 130.969 146.798 131.037 153.13C130.888 159.739 127.84 165.948 122.704 170.11L122.813 175.911C122.803 176.631 122.429 177.298 121.819 177.681L118.387 179.656C117.842 179.928 117.393 179.656 117.379 178.893V173.188C114.438 174.413 111.456 174.699 109.55 173.936C109.196 173.8 109.032 173.269 109.182 172.656L110.421 167.414C110.515 166.999 110.728 166.621 111.034 166.325C111.131 166.232 111.241 166.154 111.361 166.093C111.538 166.013 111.741 166.013 111.919 166.093C114.346 166.751 116.936 166.423 119.122 165.181C122.278 163.659 124.329 160.512 124.447 157.011C124.447 154.069 122.826 152.844 119 152.816C114.057 152.816 109.468 151.863 109.373 144.646C109.486 138.341 112.413 132.417 117.352 128.496L117.107 122.559C117.105 121.829 117.481 121.149 118.101 120.762L121.492 118.597Z" fill="white"/>
<path d="M390.646 61.351C398.633 58.9387 407.171 59.0576 415.088 61.6914C419.032 63.0026 422.718 64.9884 425.982 67.5604C429.16 70.0905 431.783 73.2469 433.689 76.8336C435.67 80.6178 436.725 84.8179 436.767 89.0889C436.782 89.9764 436.427 90.8302 435.786 91.4446C435.127 92.0764 434.248 92.4279 433.335 92.425H421.393C419.699 92.4595 418.24 91.2386 417.975 89.5655C417.722 87.5172 417.157 85.5197 416.3 83.6421C415.555 82.031 414.505 80.5792 413.209 79.3663C411.89 78.1709 410.35 77.2456 408.675 76.6429C404.88 75.3859 400.795 75.3005 396.951 76.3978C395.315 76.8414 393.771 77.5697 392.389 78.5493C391.149 79.4334 390.121 80.5822 389.379 81.9127C388.628 83.313 388.257 84.8859 388.304 86.4744C388.265 88.0709 388.743 89.6373 389.665 90.9408C390.749 92.3637 392.099 93.5617 393.642 94.4676C395.474 95.5775 397.418 96.4904 399.442 97.191C401.689 97.9536 403.841 98.648 405.856 99.2336C408.225 99.9416 410.608 100.745 412.951 101.617C415.369 102.519 417.729 103.569 420.018 104.762C422.279 105.943 424.438 107.309 426.472 108.847C428.513 110.391 430.344 112.195 431.919 114.212C433.527 116.228 434.809 118.485 435.718 120.898C436.645 123.521 437.106 126.286 437.08 129.068C437.163 133.261 436.048 137.389 433.866 140.97C431.801 144.265 429.058 147.083 425.819 149.235C422.478 151.435 418.797 153.068 414.925 154.069C411.053 155.112 407.061 155.643 403.051 155.649C398.643 155.65 394.261 154.994 390.047 153.702C385.92 152.46 382.031 150.536 378.54 148.01C375.137 145.536 372.273 142.395 370.125 138.777C367.888 134.946 366.673 130.604 366.598 126.168C366.575 125.278 366.926 124.419 367.565 123.799C368.225 123.159 369.11 122.802 370.03 122.805H381.917C383.607 122.769 385.064 123.983 385.335 125.651C385.6 127.783 386.26 129.847 387.282 131.737C388.214 133.414 389.468 134.891 390.973 136.081C392.535 137.308 394.313 138.232 396.215 138.805C400.348 139.987 404.717 140.071 408.893 139.05C410.591 138.654 412.208 137.967 413.672 137.021C414.974 136.169 416.075 135.045 416.899 133.725C417.705 132.364 418.102 130.799 418.043 129.218C418.116 127.469 417.64 125.74 416.682 124.275C415.62 122.756 414.251 121.475 412.665 120.517C410.8 119.366 408.813 118.425 406.741 117.712C404.381 116.886 402.111 116.141 399.933 115.479C396.569 114.498 393.192 113.218 389.761 111.775C386.267 110.326 382.962 108.46 379.916 106.219C376.898 104.001 374.324 101.234 372.331 98.0625C370.231 94.6173 369.159 90.6443 369.24 86.6106C369.185 82.5253 370.239 78.5016 372.29 74.968C374.254 71.6398 376.888 68.7557 380.025 66.4982C383.248 64.194 386.84 62.4535 390.646 61.351ZM329.696 60.9147C331.165 60.8892 332.486 61.8047 332.978 63.1893L361.941 150.216C362.274 151.214 362.085 152.313 361.437 153.143C360.785 153.989 359.782 154.491 358.714 154.506H347.153C345.668 154.531 344.337 153.596 343.858 152.19L337.376 131.969H311.912L305.308 152.204C304.822 153.596 303.501 154.523 302.026 154.506H290.397C289.329 154.491 288.326 153.989 287.674 153.143C287.029 152.312 286.845 151.212 287.184 150.216L316.733 63.1757C317.231 61.804 318.542 60.8972 320.001 60.9147H329.696ZM459.827 60.9157C461.597 60.9674 463.038 62.3927 463.088 64.1833V98.3348H493.74V64.1833C493.792 62.3309 495.333 60.8695 497.185 60.9153L508.372 60.9157C510.142 60.9674 511.583 62.3927 511.633 64.1833V151.223C511.581 153.076 510.041 154.537 508.188 154.491L497.001 154.491C495.232 154.439 493.791 153.014 493.74 151.223V114.267H463.088V151.223C463.036 153.076 461.496 154.537 459.643 154.491L448.565 154.491C446.796 154.439 445.355 153.014 445.305 151.223V64.1833C445.357 62.3309 446.897 60.8695 448.75 60.9153L459.827 60.9157ZM246.06 60.9016C250.086 60.9392 254.094 61.4464 258.002 62.4131C261.815 63.3333 265.44 64.9041 268.719 67.0565C271.918 69.176 274.58 72.0104 276.494 75.3357C278.521 79.025 279.514 83.1934 279.368 87.4004C279.35 92.2832 277.592 96.9999 274.411 100.704C272.974 102.375 271.316 103.841 269.482 105.062L270.353 105.579C272.651 106.994 274.702 108.774 276.426 110.849C278.152 112.917 279.511 115.266 280.443 117.794C281.381 120.461 281.842 123.273 281.805 126.1C281.921 130.36 280.946 134.578 278.973 138.355C277.1 141.842 274.483 144.873 271.306 147.234C268.047 149.627 264.399 151.437 260.522 152.585C256.511 153.802 252.348 154.439 248.157 154.478L218.642 154.477C216.873 154.426 215.431 153 215.381 151.21V64.1697C215.433 62.3173 216.974 60.8559 218.826 60.9016H246.06ZM248.974 113.79H233.996V138.573H248.457C250.416 138.544 252.359 138.214 254.217 137.593C255.932 137.028 257.539 136.176 258.969 135.074C260.263 134.063 261.318 132.78 262.06 131.315C262.838 129.737 263.226 127.995 263.191 126.236C263.266 124.435 262.925 122.642 262.196 120.994C261.526 119.549 260.545 118.27 259.323 117.249C258.002 116.158 256.487 115.327 254.857 114.798C252.956 114.177 250.974 113.838 248.974 113.79ZM324.848 92.4114L317.277 115.751H332.256L324.848 92.4114ZM246.36 76.9016H233.955V98.0489H246.728C248.573 98.0148 250.405 97.7308 252.174 97.2046C253.798 96.7392 255.331 96.0026 256.709 95.0259C257.945 94.1465 258.981 93.0138 259.745 91.7033C260.484 90.3585 260.841 88.8379 260.78 87.305C260.837 85.6912 260.47 84.0906 259.718 82.6616C259.011 81.4154 258.017 80.3557 256.818 79.5706C255.408 78.6619 253.851 78.0074 252.215 77.637C250.296 77.1805 248.333 76.9339 246.36 76.9016Z" fill="#2F3A3E"/>
<path d="M292.494 169.415C292.916 169.97 293.23 170.598 293.42 171.267C293.628 171.979 293.734 172.718 293.733 173.46L293.72 175.107C293.721 175.849 293.615 176.588 293.407 177.3C293.219 177.968 292.909 178.595 292.494 179.152C292.088 179.687 291.567 180.124 290.969 180.432C290.301 180.762 289.563 180.925 288.818 180.908C287.396 180.951 286.042 180.295 285.196 179.152C284.786 178.594 284.481 177.966 284.297 177.3C284.093 176.587 283.993 175.849 283.997 175.107V173.46C283.997 172.962 284.042 172.465 284.133 171.975C284.217 171.509 284.35 171.053 284.528 170.614C284.703 170.194 284.927 169.796 285.196 169.429C285.453 169.069 285.765 168.752 286.122 168.489C286.491 168.223 286.9 168.016 287.333 167.877C287.814 167.727 288.315 167.653 288.818 167.659C290.255 167.616 291.624 168.271 292.494 169.415ZM452.753 167.672C453.373 167.668 453.989 167.765 454.578 167.958C455.116 168.136 455.619 168.408 456.062 168.762C456.48 169.1 456.824 169.522 457.07 170.001C457.32 170.495 457.451 171.04 457.451 171.594H455.218C455.191 171.29 455.118 170.991 455 170.709C454.887 170.445 454.72 170.209 454.51 170.015C454.29 169.813 454.03 169.66 453.747 169.565C453.414 169.452 453.064 169.397 452.712 169.402C452.399 169.399 452.088 169.441 451.786 169.524C451.52 169.6 451.271 169.724 451.051 169.892C450.847 170.044 450.68 170.24 450.561 170.464C450.44 170.7 450.38 170.962 450.384 171.226C450.384 171.504 450.47 171.775 450.629 172.003C450.798 172.236 451.011 172.435 451.255 172.588C451.537 172.767 451.839 172.913 452.154 173.024C452.49 173.142 452.844 173.251 453.216 173.351C453.77 173.506 454.312 173.701 454.836 173.936C455.327 174.154 455.785 174.438 456.198 174.78C456.577 175.094 456.891 175.478 457.124 175.911C457.36 176.369 457.477 176.88 457.465 177.395C457.475 177.924 457.343 178.446 457.083 178.906C456.829 179.346 456.48 179.722 456.062 180.009C455.609 180.315 455.107 180.54 454.578 180.677C454 180.831 453.405 180.909 452.808 180.908C452.392 180.91 451.977 180.874 451.568 180.799C451.167 180.727 450.775 180.613 450.397 180.459C450.027 180.309 449.675 180.117 449.349 179.887C449.032 179.664 448.748 179.398 448.505 179.097C448.001 178.467 447.727 177.684 447.728 176.877H449.975C449.998 177.232 450.091 177.579 450.248 177.899C450.391 178.181 450.595 178.428 450.847 178.62C451.107 178.819 451.403 178.967 451.718 179.056C452.077 179.158 452.448 179.209 452.821 179.206C453.138 179.209 453.453 179.173 453.761 179.097C454.033 179.029 454.291 178.914 454.523 178.757C454.736 178.612 454.913 178.421 455.041 178.198C455.166 177.955 455.222 177.682 455.204 177.409C455.208 177.127 455.138 176.85 455 176.605C454.855 176.363 454.66 176.154 454.428 175.992C454.158 175.802 453.865 175.647 453.556 175.529C453.221 175.393 452.853 175.271 452.453 175.162C451.916 175.014 451.388 174.832 450.874 174.617C450.388 174.409 449.93 174.139 449.512 173.814C449.114 173.512 448.777 173.138 448.518 172.711C448.258 172.265 448.126 171.756 448.137 171.24C448.129 170.716 448.26 170.199 448.518 169.742C448.771 169.302 449.114 168.922 449.526 168.626C449.972 168.307 450.469 168.068 450.996 167.918C451.567 167.752 452.159 167.669 452.753 167.672ZM384.355 167.645C384.992 167.636 385.626 167.728 386.234 167.918C386.735 168.09 387.197 168.358 387.596 168.707C387.995 169.058 388.315 169.49 388.535 169.974C388.774 170.499 388.921 171.06 388.971 171.635H386.779C386.731 171.312 386.644 170.997 386.52 170.695C386.41 170.43 386.248 170.189 386.043 169.987C385.838 169.788 385.592 169.634 385.322 169.538C384.997 169.429 384.656 169.378 384.314 169.388C383.887 169.375 383.465 169.489 383.102 169.715C382.756 169.946 382.467 170.253 382.258 170.614C382.019 171.037 381.853 171.497 381.768 171.975C381.661 172.486 381.606 173.006 381.604 173.528V175.135C381.61 175.652 381.669 176.168 381.781 176.673C381.871 177.154 382.046 177.616 382.299 178.035C382.523 178.401 382.831 178.709 383.197 178.934C383.611 179.172 384.082 179.29 384.559 179.274H385.213C385.429 179.25 385.643 179.209 385.853 179.152C386.046 179.094 386.233 179.016 386.411 178.92C386.568 178.835 386.707 178.719 386.819 178.58V176.006H384.368V174.358H389.012L389.08 179.111C388.841 179.382 388.571 179.624 388.276 179.832C387.949 180.062 387.598 180.253 387.228 180.404C386.824 180.568 386.404 180.691 385.975 180.772C385.5 180.864 385.016 180.91 384.532 180.908C383.785 180.924 383.045 180.771 382.367 180.459C381.75 180.169 381.206 179.745 380.773 179.22C380.326 178.672 379.989 178.043 379.779 177.368C379.546 176.628 379.427 175.856 379.425 175.08V173.487C379.421 172.711 379.535 171.94 379.766 171.199C379.97 170.527 380.298 169.899 380.733 169.347C381.148 168.826 381.673 168.402 382.271 168.108C382.92 167.792 383.634 167.634 384.355 167.645ZM300.215 167.781V176.415C300.219 176.783 300.274 177.15 300.379 177.504C300.464 177.814 300.607 178.105 300.801 178.362C300.986 178.599 301.223 178.791 301.495 178.92C301.798 179.06 302.128 179.13 302.462 179.124C302.804 179.13 303.144 179.06 303.456 178.92C303.737 178.793 303.984 178.602 304.178 178.362C304.378 178.107 304.526 177.816 304.613 177.504C304.717 177.15 304.772 176.783 304.777 176.415V167.781L306.983 167.836V176.469C306.984 177.089 306.868 177.703 306.642 178.28C306.433 178.791 306.123 179.254 305.73 179.642C305.343 180.032 304.879 180.338 304.368 180.54C303.771 180.758 303.139 180.864 302.503 180.854C301.88 180.864 301.262 180.758 300.678 180.54C299.612 180.142 298.768 179.303 298.363 178.239C298.137 177.658 298.021 177.039 298.023 176.415V167.781H300.215ZM484.276 167.863V169.62H477.808V173.255H483.405V174.944H477.822V179.029H484.345V180.758H475.575V167.863H484.276ZM252.447 167.863V169.62H245.979V173.255H251.562V174.944H245.979V179.029H252.501V180.758H243.745V167.863H252.447ZM347.902 167.863V169.62H341.434V173.255H347.017V174.944H341.434V179.029H347.956V180.758H339.201V167.863H347.902ZM275.214 167.822C275.829 167.826 276.441 167.899 277.039 168.04C277.567 168.159 278.07 168.371 278.523 168.666C278.944 168.941 279.29 169.315 279.531 169.756C279.784 170.238 279.906 170.778 279.885 171.322C279.895 171.915 279.697 172.493 279.327 172.956C278.932 173.428 278.42 173.79 277.842 174.004C278.199 174.098 278.538 174.244 278.85 174.44C279.133 174.617 279.382 174.843 279.585 175.107C279.786 175.366 279.942 175.656 280.048 175.965C280.157 176.29 280.212 176.63 280.212 176.973C280.224 177.533 280.103 178.089 279.858 178.593C279.627 179.055 279.291 179.456 278.877 179.764C278.43 180.089 277.927 180.329 277.393 180.472C276.79 180.642 276.167 180.729 275.541 180.731L270.884 180.718V167.822H275.214ZM399.075 167.836L403.391 180.731H401.09L400.191 177.735H395.956L395.031 180.731H392.716L397.114 167.836H399.075ZM415.619 167.836V169.592H412.692V178.975H415.619V180.731H407.558V178.975H410.431V169.592H407.558V167.836H415.619ZM371.745 167.836L376.062 180.731H373.761L372.916 177.735H368.682L367.756 180.731H365.441L369.839 167.836H371.745ZM505.192 167.822V178.988H511.66V180.718H502.959V167.822H505.192ZM491.575 167.822V178.988H498.043V180.718H489.342V167.822H491.575ZM316.12 167.795C316.768 167.797 317.414 167.884 318.04 168.054C318.589 168.195 319.107 168.44 319.565 168.775C319.989 169.093 320.33 169.509 320.559 169.987C320.806 170.52 320.927 171.102 320.913 171.689C320.919 172.091 320.859 172.491 320.736 172.874C320.621 173.221 320.451 173.548 320.232 173.841C320.013 174.133 319.752 174.39 319.456 174.603C319.143 174.828 318.805 175.015 318.448 175.162L321.322 180.609V180.718H318.939L316.351 175.666H314.077V180.69H311.831V167.795H316.12ZM423.027 167.822L427.425 176.673V167.822H429.686L429.672 180.718H427.425L423.013 171.853V180.718H420.767V167.822H423.027ZM327.545 167.822L331.943 176.673V167.822H334.203V180.718H331.956L327.545 171.853V180.718H325.284V167.822H327.545ZM463.783 167.822V173.269H468.426V167.822H470.605L470.591 180.718H468.426V174.957H463.796V180.718H461.618V167.822H463.783ZM226.002 167.822L225.948 169.579H221.781V180.718H219.562V169.579H215.476V167.822H226.002ZM231.967 167.822V173.269H236.583V167.822H238.762V180.718H236.583V174.957H231.967V180.718H229.802V167.822H231.967ZM288.818 169.456C288.374 169.441 287.936 169.565 287.565 169.81C287.232 170.046 286.961 170.359 286.775 170.723C286.571 171.125 286.433 171.557 286.367 172.003C286.29 172.48 286.249 172.962 286.244 173.446V175.107C286.252 175.591 286.297 176.074 286.38 176.551C286.45 176.996 286.588 177.428 286.789 177.831C286.973 178.199 287.244 178.516 287.579 178.757C287.949 179.003 288.387 179.127 288.831 179.111C289.28 179.126 289.722 179.002 290.098 178.757C290.437 178.515 290.717 178.198 290.915 177.831C291.128 177.43 291.275 176.998 291.351 176.551C291.435 176.074 291.48 175.591 291.487 175.107L291.473 173.446C291.468 172.962 291.423 172.479 291.337 172.003C291.261 171.555 291.114 171.123 290.901 170.723C290.704 170.358 290.425 170.046 290.084 169.81C289.708 169.565 289.266 169.442 288.818 169.456ZM275.677 174.862L273.131 174.876V178.961H275.568C275.896 178.96 276.222 178.91 276.535 178.811C276.807 178.721 277.061 178.583 277.284 178.403C277.496 178.234 277.668 178.02 277.788 177.776C277.91 177.517 277.971 177.232 277.965 176.946C277.969 176.647 277.913 176.351 277.802 176.074C277.704 175.825 277.55 175.601 277.352 175.42C277.141 175.237 276.896 175.098 276.631 175.012C276.322 174.913 276.001 174.863 275.677 174.862ZM361.097 174.222V175.924H353.635V174.222H361.097ZM370.819 170.872L369.253 175.924H372.358L370.819 170.872ZM398.094 170.872L396.528 175.924H399.633L398.094 170.872ZM316.133 169.524H314.091L314.077 173.95H316.133C316.48 173.953 316.824 173.902 317.155 173.8C317.447 173.706 317.72 173.558 317.958 173.364C318.185 173.181 318.366 172.948 318.489 172.683C318.619 172.392 318.684 172.076 318.68 171.757C318.686 171.431 318.625 171.107 318.503 170.804C318.391 170.537 318.218 170.299 317.999 170.11C317.764 169.911 317.491 169.762 317.196 169.674C316.85 169.575 316.493 169.524 316.133 169.524ZM275.255 169.592H273.131V173.255H275.269C275.586 173.255 275.902 173.214 276.208 173.133C276.478 173.063 276.732 172.942 276.957 172.779C277.166 172.628 277.338 172.433 277.461 172.207C277.589 171.968 277.654 171.701 277.652 171.431C277.659 171.144 277.598 170.859 277.475 170.6C277.357 170.37 277.184 170.174 276.971 170.028C276.739 169.873 276.481 169.762 276.208 169.701C275.895 169.632 275.576 169.595 275.255 169.592Z" fill="#2F3A3E"/>
</svg>
