<svg width="256" height="256" viewBox="0 0 256 256" fill="none" xmlns="http://www.w3.org/2000/svg">
<g clip-path="url(#clip0_2_15074)">
<path d="M127.783 190.559C184.42 267.767 239.847 169.009 239.765 109.62C239.669 39.4024 168.5 0.158203 127.737 0.158203C62.3091 0.158203 0 54.2319 0 128.216C0 210.449 71.4246 256 127.737 256C114.994 254.165 72.527 245.065 71.9563 147.253C71.5725 81.0982 93.5364 54.6679 127.645 66.2943C128.409 66.5776 165.267 81.1175 165.267 128.615C165.267 175.911 127.783 190.559 127.783 190.559Z" fill="url(#paint0_linear_2_15074)"/>
<path d="M127.717 66.2413C90.2931 53.3423 44.4484 84.1866 44.4484 145.967C44.4484 246.844 119.201 256 128.263 256C193.691 256 256 201.926 256 127.943C256 45.709 184.575 0.158608 128.263 0.158608C143.86 -2.00139 212.328 17.0385 212.328 110.617C212.328 171.643 161.204 204.865 127.952 190.671C127.188 190.388 90.3294 175.848 90.3294 128.35C90.3294 81.0543 127.717 66.2413 127.717 66.2413Z" fill="url(#paint1_linear_2_15074)"/>
</g>
<defs>
<linearGradient id="paint0_linear_2_15074" x1="37.8621" y1="37.8617" x2="229.092" y2="205.814" gradientUnits="userSpaceOnUse">
<stop/>
<stop offset="1" stop-color="white"/>
</linearGradient>
<linearGradient id="paint1_linear_2_15074" x1="218.208" y1="218.208" x2="11.229" y2="76.8634" gradientUnits="userSpaceOnUse">
<stop/>
<stop offset="1" stop-color="white"/>
</linearGradient>
<clipPath id="clip0_2_15074">
<rect width="256" height="256" fill="white"/>
</clipPath>
</defs>
</svg>
