<svg width="256" height="256" viewBox="0 0 256 256" fill="none" xmlns="http://www.w3.org/2000/svg">
<g clip-path="url(#clip0_2_15398)">
<path d="M218.123 218.127H180.192V158.724C180.192 144.559 179.939 126.324 160.464 126.324C140.708 126.324 137.685 141.757 137.685 157.693V218.123H99.7541V95.9664H136.168V112.66H136.678C144.103 99.9649 157.909 92.3823 172.606 92.9279C211.051 92.9279 218.139 118.216 218.139 151.114L218.123 218.127ZM56.9551 79.2684C44.7982 79.2706 34.9414 69.417 34.9392 57.2599C34.937 45.1028 44.7903 35.2457 56.9472 35.2435C69.104 35.2413 78.9609 45.0949 78.9631 57.252C78.9641 63.0901 76.646 68.6894 72.5187 72.8183C68.3914 76.9472 62.793 79.2673 56.9551 79.2684ZM75.9207 218.127H37.95V95.9664H75.9207V218.127ZM237.033 0.0181122H18.8895C8.57962 -0.0982379 0.12485 8.16042 -0.000976562 18.4705V237.524C0.120542 247.839 8.57463 256.106 18.8895 255.998H237.033C247.369 256.126 255.856 247.859 255.999 237.524V18.4547C255.852 8.12424 247.364 -0.133938 237.033 0.000645315" fill="#0A66C2"/>
</g>
<defs>
<clipPath id="clip0_2_15398">
<rect width="256" height="256" fill="white"/>
</clipPath>
</defs>
</svg>
