<svg width="256" height="256" viewBox="0 0 256 256" fill="none" xmlns="http://www.w3.org/2000/svg">
<g clip-path="url(#clip0_2_15351)">
<path d="M185.532 88.8387L185.438 88.7986C185.385 88.7786 185.331 88.7586 185.284 88.7118C185.129 88.5451 185.06 88.3157 185.097 88.0909L190.264 56.5375L214.493 80.7467L189.295 91.4559C189.225 91.4841 189.15 91.4977 189.074 91.4959H188.974C188.94 91.4759 188.907 91.4492 188.84 91.3824C187.902 90.3395 186.781 89.4773 185.532 88.8387ZM220.676 86.9158L246.582 112.794C251.963 118.175 254.657 120.859 255.639 123.971C255.786 124.431 255.906 124.892 256 125.366L194.087 99.174C194.054 99.1603 194.02 99.1469 193.987 99.1339C193.739 99.0338 193.452 98.9203 193.452 98.6666C193.452 98.4129 193.746 98.2927 193.993 98.1925L194.074 98.1591L220.676 86.9158ZM254.944 133.672C253.607 136.182 251 138.786 246.589 143.199L217.38 172.369L179.603 164.511L179.403 164.471C179.068 164.417 178.714 164.357 178.714 164.057C178.424 160.91 176.838 158.025 174.336 156.092C174.182 155.938 174.223 155.698 174.269 155.477C174.269 155.444 174.269 155.411 174.283 155.384L181.388 111.813L181.414 111.666C181.454 111.332 181.515 110.945 181.815 110.945C184.891 110.563 187.684 108.963 189.569 106.505C189.629 106.438 189.669 106.365 189.749 106.325C189.963 106.224 190.217 106.325 190.438 106.418L254.937 133.672H254.944ZM210.663 179.079L162.633 227.057L170.854 176.582L170.867 176.515C170.874 176.448 170.887 176.382 170.907 176.322C170.974 176.161 171.148 176.095 171.315 176.028L171.395 175.994C173.195 175.227 174.787 174.044 176.041 172.543C176.201 172.356 176.395 172.175 176.642 172.142C176.706 172.132 176.772 172.132 176.836 172.142L210.656 179.086L210.663 179.079ZM152.466 237.212L147.052 242.62L87.1981 156.212C87.1765 156.18 87.1542 156.149 87.1313 156.118C87.0377 155.991 86.9375 155.865 86.9575 155.718C86.9642 155.611 87.031 155.517 87.1046 155.437L87.1714 155.35C87.3519 155.083 87.5056 154.816 87.6727 154.529L87.8064 154.296L87.8264 154.276C87.92 154.115 88.0069 153.962 88.1673 153.875C88.3077 153.808 88.5015 153.835 88.6552 153.868L154.966 167.529C155.152 167.557 155.327 167.633 155.474 167.749C155.561 167.836 155.581 167.929 155.601 168.036C156.539 171.58 159.081 174.482 162.472 175.881C162.659 175.974 162.579 176.181 162.492 176.402C162.449 176.498 162.415 176.599 162.392 176.702C161.557 181.776 154.391 225.428 152.466 237.212ZM141.157 248.502C137.167 252.448 134.814 254.537 132.154 255.379C129.531 256.207 126.716 256.207 124.093 255.379C120.979 254.391 118.285 251.707 112.904 246.325L52.7961 186.283L68.4966 161.96C68.5701 161.84 68.6436 161.733 68.7639 161.646C68.931 161.526 69.1717 161.58 69.3722 161.646C72.9759 162.732 76.8451 162.537 80.3204 161.092C80.5009 161.026 80.6813 160.979 80.8217 161.106C80.8919 161.17 80.9547 161.241 81.0089 161.319L141.157 248.508V248.502ZM47.0012 180.494L33.2123 166.721L60.4425 155.117C60.5121 155.087 60.5871 155.071 60.6631 155.07C60.8903 155.07 61.024 155.297 61.1443 155.504C61.418 155.925 61.7078 156.334 62.0132 156.733L62.1001 156.839C62.1803 156.953 62.1268 157.066 62.0466 157.173L47.0079 180.494H47.0012ZM27.1099 160.625L9.66492 143.199C6.69727 140.235 4.54505 138.085 3.04786 136.236L56.0913 147.225C56.1579 147.237 56.2248 147.249 56.2918 147.259C56.6193 147.312 56.9802 147.372 56.9802 147.679C56.9802 148.013 56.5859 148.167 56.2517 148.293L56.098 148.36L27.1099 160.625ZM0 127.276C0.0604502 126.153 0.262566 125.043 0.601551 123.971C1.59077 120.859 4.27769 118.175 9.66492 112.794L31.9891 90.4945C42.2679 105.396 52.5745 120.278 62.9089 135.141C63.0893 135.381 63.2898 135.648 63.0826 135.848C62.1068 136.923 61.1309 138.098 60.4425 139.374C60.3678 139.537 60.2528 139.68 60.1083 139.787C60.0214 139.841 59.9278 139.821 59.8276 139.801H59.8142L0 127.269V127.276ZM37.9645 84.5256L67.9819 54.5412C70.8025 55.7764 81.069 60.1095 90.2527 63.9819C97.2039 66.9195 103.54 69.5902 105.532 70.4581C105.733 70.5382 105.913 70.6184 106 70.8187C106.053 70.9388 106.027 71.0924 106 71.2192C105.035 75.6159 106.348 80.2026 109.496 83.424C109.696 83.6243 109.496 83.9114 109.322 84.1584L109.228 84.2986L78.7497 131.455C78.6695 131.589 78.596 131.702 78.4623 131.789C78.3019 131.889 78.0746 131.842 77.8875 131.796C76.702 131.485 75.4834 131.32 74.2581 131.302C73.1619 131.302 71.9722 131.502 70.7691 131.722H70.7624C70.6288 131.742 70.5084 131.769 70.4015 131.689C70.2834 131.592 70.1818 131.477 70.1007 131.348L37.9645 84.5256ZM74.0442 48.4856L112.904 9.6681C118.285 4.29348 120.979 1.60282 124.093 0.621371C126.716 -0.207124 129.531 -0.207124 132.154 0.621371C135.269 1.60282 137.962 4.29348 143.343 9.6681L151.765 18.0806L124.127 60.8372C124.058 60.9617 123.965 61.0708 123.853 61.1577C123.686 61.2712 123.452 61.2244 123.251 61.1577C118.827 59.8167 114.026 60.7409 110.418 63.628C110.238 63.815 109.97 63.7081 109.743 63.608C106.134 62.039 78.0612 50.1881 74.0442 48.4856ZM157.633 23.9426L183.152 49.4337L177.003 87.4767V87.5768C176.998 87.6635 176.979 87.749 176.95 87.8305C176.883 87.964 176.749 87.9908 176.615 88.0308C175.301 88.4286 174.062 89.0448 172.953 89.8535C172.905 89.8875 172.86 89.9254 172.819 89.967C172.745 90.0471 172.672 90.1206 172.552 90.1339C172.454 90.1369 172.356 90.1211 172.264 90.0872L133.377 73.5827L133.304 73.5494C133.056 73.4492 132.762 73.329 132.762 73.0753C132.534 70.9107 131.826 68.8239 130.69 66.9663C130.503 66.6592 130.296 66.3387 130.456 66.0249L157.633 23.9426ZM131.352 81.401L167.806 96.8238C168.006 96.9173 168.227 97.0041 168.314 97.2111C168.349 97.3355 168.349 97.4672 168.314 97.5916C168.207 98.1258 168.113 98.7333 168.113 99.3476V100.369C168.113 100.623 167.853 100.73 167.612 100.83L167.539 100.856C161.764 103.32 86.4629 135.394 86.3493 135.394C86.2357 135.394 86.1153 135.394 86.0017 135.281C85.8012 135.08 86.0017 134.8 86.1822 134.546C86.2141 134.502 86.2453 134.458 86.2758 134.413L116.233 88.0775L116.286 87.9974C116.46 87.717 116.661 87.4032 116.982 87.4032L117.282 87.45C117.964 87.5434 118.566 87.6302 119.174 87.6302C123.719 87.6302 127.93 85.4203 130.47 81.6413C130.53 81.5404 130.607 81.4502 130.697 81.3743C130.877 81.2408 131.145 81.3075 131.352 81.401ZM89.6043 142.725L171.683 107.76C171.683 107.76 171.803 107.76 171.917 107.874C172.364 108.321 172.745 108.621 173.113 108.902L173.293 109.015C173.461 109.109 173.628 109.216 173.641 109.389C173.641 109.456 173.641 109.496 173.628 109.556L166.596 152.7L166.569 152.874C166.523 153.207 166.476 153.588 166.162 153.588C162.356 153.844 158.922 155.961 156.985 159.243L156.951 159.296C156.858 159.45 156.771 159.597 156.617 159.677C156.477 159.744 156.296 159.717 156.149 159.684L90.6938 146.197C90.627 146.184 89.6779 142.732 89.6043 142.725Z" fill="url(#paint0_radial_2_15351)"/>
</g>
<defs>
<radialGradient id="paint0_radial_2_15351" cx="0" cy="0" r="1" gradientUnits="userSpaceOnUse" gradientTransform="translate(128 -128) scale(256)">
<stop stop-color="#20C6B7"/>
<stop offset="1" stop-color="#4D9ABF"/>
</radialGradient>
<clipPath id="clip0_2_15351">
<rect width="256" height="256" fill="white"/>
</clipPath>
</defs>
</svg>
