<svg width="256" height="292" viewBox="0 0 256 292" fill="none" xmlns="http://www.w3.org/2000/svg">
<g clip-path="url(#clip0_2_14841)">
<path d="M120.947 289.19C125.205 291.652 130.458 291.652 134.716 289.19L248.798 223.36C253.064 220.9 255.69 216.352 255.69 211.425V79.6635C255.69 74.7403 253.063 70.1953 248.804 67.7299L134.725 1.84621C130.458 -0.615403 125.205 -0.615403 120.939 1.84621L6.88907 67.7299C2.62687 70.1944 0 74.7413 0 79.6635V211.433C0 216.352 2.62687 220.899 6.89194 223.359L120.946 289.189" fill="#76D04B"/>
<path d="M201.701 114.111L196.614 111.183C204.437 99.6444 209.112 82.2956 203.25 56.3584C203.25 56.3584 190.049 93.3571 163.51 92.1315L132.437 74.2497C131.265 73.5543 129.952 73.1961 128.624 73.1417H127.907C126.582 73.1971 125.271 73.5553 124.083 74.2497L93.0064 92.1315C66.4712 93.3609 53.2652 56.3584 53.2652 56.3584C47.4001 82.2946 52.0827 99.6434 59.904 111.183L54.8175 114.112C52.2336 115.601 50.6269 118.367 50.6269 121.383L50.7797 228.715C50.7797 230.213 51.5554 231.6 52.8698 232.329C54.1536 233.104 55.7431 233.104 57.025 232.329L98.1894 208.758C100.794 207.21 102.378 204.481 102.378 201.498V151.355C102.378 148.366 103.962 145.593 106.555 144.112L124.084 134.018C125.389 133.258 126.818 132.888 128.277 132.888C129.703 132.888 131.169 133.258 132.439 134.017L149.962 144.111C152.556 145.592 154.145 148.365 154.145 151.354V201.496C154.145 204.479 155.75 207.229 158.339 208.756L199.493 232.327C200.784 233.101 202.397 233.101 203.677 232.327C204.952 231.598 205.754 230.21 205.754 228.712L205.888 121.38C205.885 118.362 204.302 115.597 201.702 114.109L201.701 114.111Z" fill="#4F4D3F"/>
</g>
<defs>
<clipPath id="clip0_2_14841">
<rect width="256" height="292" fill="white"/>
</clipPath>
</defs>
</svg>
