<svg width="512" height="156" viewBox="0 0 512 156" fill="none" xmlns="http://www.w3.org/2000/svg">
<g clip-path="url(#clip0_2_15587)">
<path d="M293.909 52.9058C296.627 52.9058 299.268 53.2941 301.831 54.0708C304.316 54.9251 305.637 56.0125 305.637 57.3328C305.637 58.0318 305.404 58.7308 304.938 59.3522C304.627 59.9735 303.928 60.4395 303.229 60.4395C302.219 60.1289 301.21 59.7405 300.2 59.2745C298.258 58.4202 296.161 57.9542 293.987 58.0318C291.734 57.9542 289.404 58.4978 287.462 59.6629C285.754 60.8279 284.822 62.8472 284.977 64.9443C284.899 66.886 285.676 68.75 287.152 69.9927C288.783 71.313 290.647 72.4004 292.666 73.0217C294.841 73.7984 297.016 74.6527 299.19 75.6624C301.365 76.7498 303.229 78.3808 304.627 80.4002C306.18 82.8855 306.957 85.7592 306.879 88.7106C306.879 93.293 305.559 96.7881 302.841 99.1181C299.889 101.603 296.084 102.846 292.2 102.613C288.705 102.691 285.21 101.836 282.181 100.128C279.385 98.2637 277.987 96.6327 277.987 95.0017C277.987 94.225 278.298 93.526 278.764 92.9047C279.152 92.361 279.696 91.9727 280.395 91.895C281.016 91.9727 281.56 92.2833 281.948 92.7493C282.569 93.293 283.191 93.9144 283.89 94.6134C284.822 95.4677 285.909 96.089 287.074 96.4774C288.627 97.0987 290.336 97.3317 291.967 97.3317C294.453 97.4871 296.86 96.7104 298.802 95.2347C300.511 93.6813 301.443 91.3513 301.287 89.0213C301.365 86.7689 300.588 84.6719 299.035 83.0409C297.482 81.4875 295.618 80.3225 293.521 79.5458C291.346 78.7691 289.249 77.9148 286.996 76.9828C284.822 76.0508 282.958 74.6527 281.482 72.7887C279.929 70.6917 279.074 68.1286 279.23 65.4879C279.152 63.3909 279.618 61.2939 280.55 59.3522C281.327 57.7212 282.569 56.4008 284.123 55.4688C285.598 54.6145 287.152 53.9931 288.783 53.5271C290.491 53.1388 292.2 52.9058 293.909 52.9058ZM254.143 56.5561C256.784 58.8862 258.104 62.6142 258.104 67.585V87.7009C258.104 92.7493 256.784 96.3997 254.143 98.7297C247.93 103.467 239.386 103.467 233.173 98.7297C230.61 96.3997 229.289 92.7493 229.289 87.7009V67.585C229.289 62.5366 230.61 58.8862 233.173 56.5561C239.386 51.8961 247.93 51.8961 254.143 56.5561ZM446.06 53.0611C447.924 53.0611 449.089 53.6824 449.477 55.0028L463.225 99.2734V99.6618C463.225 100.361 462.759 100.982 462.137 101.293C461.438 101.759 460.584 101.992 459.652 101.914C458.798 101.992 457.943 101.526 457.633 100.671L454.681 90.8853H437.128L434.177 100.671C433.944 101.526 433.012 102.069 432.158 101.992C431.381 101.992 430.604 101.759 429.905 101.293C429.206 100.982 428.818 100.361 428.818 99.5841C428.818 99.4288 428.895 99.1958 428.973 99.0404L442.643 55.0028C443.031 53.6824 444.196 53.0611 446.06 53.0611ZM376.78 53.0611C378.567 53.0611 380.042 54.2261 381.285 56.6338L391.77 76.7498L402.333 56.6338C403.653 54.3038 405.129 53.0611 406.838 53.0611C408.158 52.8281 409.401 53.7601 409.634 55.0805C409.712 55.3135 409.712 55.5465 409.634 55.7795V99.8171C409.634 100.438 409.323 100.982 408.779 101.293C407.537 101.992 406.061 101.992 404.818 101.293C404.275 100.982 403.964 100.438 403.964 99.8171V64.7889L393.867 83.7399C393.557 84.6719 392.702 85.3709 391.693 85.3709C390.761 85.2932 389.906 84.6719 389.596 83.7399L379.499 64.4006V99.8171C379.499 100.438 379.188 100.982 378.644 101.293C378.101 101.681 377.402 101.914 376.78 101.914C376.081 101.914 375.382 101.759 374.839 101.37C374.217 101.137 373.829 100.516 373.907 99.8948V55.8571C373.674 54.5368 374.606 53.2941 375.926 53.0611C376.237 52.9834 376.547 52.9834 376.78 53.0611ZM485.36 52.9834C486.214 52.9834 487.069 53.2941 487.768 53.8378C488.544 54.6145 489.243 55.5465 489.632 56.5561L506.33 89.1766V54.9251C506.33 54.3038 506.641 53.7601 507.185 53.5271C508.427 52.8281 509.903 52.8281 511.146 53.5271C511.689 53.8378 512 54.3814 512 54.9251V99.8948C512 100.516 511.689 101.06 511.146 101.37C510.524 101.759 509.903 101.914 509.204 101.914C507.651 101.836 506.253 100.827 505.709 99.3511L488.156 65.7209V99.8948C488.156 100.516 487.845 101.06 487.379 101.37C486.137 102.069 484.661 102.069 483.418 101.37C482.875 101.06 482.564 100.516 482.564 99.8948V54.9251C482.564 53.6048 483.496 52.9834 485.36 52.9834ZM182.844 52.9834H195.504C199.232 52.8281 202.96 54.0708 205.834 56.4785C208.397 58.8085 209.717 62.4589 209.717 67.4296V68.051C209.717 73.0217 208.397 76.7498 205.756 79.0798C202.805 81.4875 199.076 82.8079 195.271 82.5748H186.261V99.8948C186.261 100.516 185.951 101.06 185.407 101.37C184.164 102.069 182.689 102.069 181.446 101.37C180.902 101.06 180.592 100.516 180.592 99.8948V54.9251C180.592 54.3814 180.825 53.9154 181.213 53.5271C181.679 53.1388 182.223 52.9058 182.844 52.9834ZM352.781 52.9834C353.402 52.9834 353.946 53.2164 354.257 53.7601C354.645 54.2261 354.8 54.8475 354.8 55.4688C354.8 56.0901 354.645 56.7892 354.257 57.3328C353.946 57.8765 353.402 58.1095 352.781 58.1095H342.141V99.8948C342.141 100.516 341.83 101.06 341.286 101.37C340.044 102.069 338.568 102.069 337.325 101.37C336.781 101.06 336.471 100.516 336.471 99.8948V58.1095H325.675C325.054 58.1095 324.51 57.8765 324.199 57.3328C323.811 56.7892 323.578 56.1678 323.578 55.4688C323.578 54.8475 323.733 54.2261 324.122 53.7601C324.432 53.2164 324.976 52.9834 325.597 52.9834H352.781ZM243.735 58.0318C237.91 58.0318 235.037 61.1385 235.037 67.5073L234.959 87.7009C234.959 93.992 237.833 97.1764 243.735 97.1764C246.143 97.3317 248.473 96.4774 250.26 94.8464C251.968 92.9047 252.745 90.3416 252.59 87.7009V67.5073C252.823 64.9443 251.968 62.3812 250.26 60.3619C248.473 58.7308 246.143 57.8765 243.735 58.0318ZM446.06 61.2162L438.526 86.2252H453.516L446.06 61.2162ZM195.271 58.1095H186.261L186.184 77.9148H195.271C197.678 78.0701 200.086 77.2158 201.795 75.5071C203.504 73.5654 204.358 71.0023 204.125 68.3616V67.585C204.358 65.0219 203.504 62.4589 201.795 60.4395C200.009 58.8085 197.678 57.9542 195.271 58.1095Z" fill="#FF6C37"/>
<path d="M154.728 87.5456C160.165 44.9836 130.108 6.07209 87.6233 0.635341C45.139 -4.8014 6.07209 25.256 0.635341 67.7403C-4.8014 110.225 25.256 149.214 67.7403 154.728C110.302 160.165 149.214 130.108 154.728 87.5456Z" fill="#FF6C37"/>
<path d="M105.72 49.8767L72.9441 82.6525L63.7017 73.41C95.9338 41.1779 99.1182 43.9739 105.72 49.8767Z" fill="white"/>
<path d="M72.9441 83.4291C72.7111 83.4291 72.5558 83.3514 72.4004 83.1961L63.0803 73.9536C62.7696 73.643 62.7696 73.177 63.0803 72.8663C95.8561 40.0905 99.2735 43.1972 106.186 49.4106C106.341 49.566 106.419 49.7213 106.419 49.9543C106.419 50.1873 106.341 50.3426 106.186 50.498L73.4101 83.1961C73.3324 83.3514 73.0994 83.4291 72.9441 83.4291ZM64.789 73.41L72.9441 81.5651L104.555 49.9543C98.8075 44.8282 94.9241 43.2749 64.789 73.41Z" fill="#FF6C37"/>
<path d="M82.3418 92.0502L73.41 83.1185L106.186 50.3427C114.962 59.1968 101.836 73.5653 82.3418 92.0502Z" fill="white"/>
<path d="M82.3419 92.827C82.1089 92.827 81.9535 92.7493 81.7982 92.594L72.8664 83.6622C72.7111 83.5069 72.7111 83.3515 72.7111 83.1185C72.7111 82.8855 72.7887 82.7302 72.9441 82.5748L105.72 49.799C106.031 49.4884 106.497 49.4884 106.807 49.799C108.827 51.6631 109.914 54.3038 109.836 57.0221C109.681 65.6433 99.8948 76.5944 82.9632 92.594C82.7302 92.7493 82.4972 92.827 82.3419 92.827ZM74.4974 83.1185C79.4682 88.1669 81.5652 90.1863 82.3419 90.963C95.3901 78.5361 108.05 65.7986 108.128 57.0221C108.205 55.0028 107.429 52.9834 106.108 51.4301L74.4974 83.1185Z" fill="#FF6C37"/>
<path d="M63.8569 73.643L70.4587 80.2448C70.614 80.4001 70.614 80.5555 70.4587 80.7108C70.381 80.7885 70.381 80.7885 70.3034 80.7885L56.6338 83.7398C55.9348 83.8175 55.3135 83.3515 55.1581 82.6525C55.0805 82.2641 55.2358 81.8758 55.4688 81.6428L63.3909 73.7207C63.5463 73.5654 63.7793 73.4877 63.8569 73.643Z" fill="white"/>
<path d="M56.4008 84.5164C55.2358 84.5164 54.3815 83.5844 54.3815 82.4194C54.3815 81.8757 54.6145 81.3321 55.0028 80.9437L62.9249 73.0216C63.3909 72.6333 64.0123 72.6333 64.4783 73.0216L71.08 79.6234C71.546 80.0117 71.546 80.7107 71.08 81.1767C70.9247 81.3321 70.7694 81.4097 70.5364 81.4874L56.8668 84.4388C56.7115 84.4388 56.5562 84.5164 56.4008 84.5164ZM63.6239 74.4973L56.0125 82.1087C55.8572 82.2641 55.7795 82.4971 55.9348 82.7301C56.0125 82.9631 56.2455 83.0407 56.4785 82.9631L69.2937 80.167L63.6239 74.4973Z" fill="#FF6C37"/>
<path d="M123.04 31.7024C118.069 26.887 110.069 27.0423 105.254 32.0907C100.439 37.1391 100.594 45.0612 105.642 49.8767C109.759 53.8377 115.972 54.5367 120.865 51.5853L112.011 42.7312L123.04 31.7024Z" fill="white"/>
<path d="M114.341 54.1484C106.963 54.1484 100.982 48.168 100.982 40.7895C100.982 33.4111 106.963 27.4307 114.341 27.4307C117.758 27.4307 121.098 28.751 123.583 31.1587C123.739 31.3141 123.816 31.4694 123.816 31.7024C123.816 31.9354 123.739 32.0907 123.583 32.2461L113.098 42.7312L121.331 50.964C121.642 51.2747 121.642 51.7407 121.331 52.0513C121.253 52.129 121.253 52.129 121.176 52.2067C119.156 53.4494 116.749 54.1484 114.341 54.1484ZM114.341 29.0617C107.817 29.0617 102.536 34.3431 102.613 40.8672C102.613 47.3913 107.895 52.6727 114.419 52.595C116.205 52.595 117.991 52.2067 119.622 51.3523L111.467 43.2749C111.312 43.1196 111.234 42.9642 111.234 42.7312C111.234 42.4982 111.312 42.3429 111.467 42.1875L121.875 31.7801C119.778 29.9937 117.137 29.0617 114.341 29.0617Z" fill="#FF6C37"/>
<path d="M123.273 31.9354L123.117 31.78L112.011 42.7312L120.787 51.5076C121.642 50.964 122.496 50.3426 123.195 49.6436C128.166 44.7505 128.166 36.8284 123.273 31.9354Z" fill="white"/>
<path d="M120.865 52.362C120.632 52.362 120.477 52.2843 120.321 52.129L111.467 43.2748C111.312 43.1195 111.234 42.9642 111.234 42.7312C111.234 42.4982 111.312 42.3428 111.467 42.1875L122.496 31.1587C122.807 30.848 123.273 30.848 123.583 31.1587L123.816 31.314C129.02 36.5177 129.02 44.9059 123.894 50.1873C123.117 50.9639 122.263 51.663 121.331 52.2066C121.098 52.2843 120.943 52.362 120.865 52.362ZM113.098 42.7312L120.943 50.5756C121.564 50.1873 122.185 49.6436 122.651 49.1776C127.078 44.7505 127.311 37.5274 123.04 32.8674L113.098 42.7312Z" fill="#FF6C37"/>
<path d="M107.04 51.2747C105.176 49.4107 102.147 49.4107 100.283 51.2747L71.0024 80.5555L75.8955 85.4486L106.885 58.2648C108.904 56.5561 109.06 53.5271 107.351 51.5077C107.196 51.4301 107.118 51.3524 107.04 51.2747Z" fill="white"/>
<path d="M75.8178 86.2252C75.5848 86.2252 75.4295 86.1475 75.2741 85.9922L70.3811 81.0991C70.0704 80.7884 70.0704 80.3224 70.3811 80.0118L99.6618 50.731C101.837 48.5563 105.332 48.5563 107.506 50.731C109.681 52.9057 109.681 56.4007 107.506 58.5754C107.429 58.6531 107.351 58.7308 107.273 58.8084L76.2838 85.9922C76.2062 86.1475 76.0508 86.2252 75.8178 86.2252ZM72.0898 80.5554L75.8955 84.3611L106.341 57.6434C108.05 56.2454 108.205 53.6824 106.807 51.9737C105.409 50.265 102.846 50.1097 101.138 51.5077C101.06 51.5853 100.982 51.663 100.827 51.7407L72.0898 80.5554Z" fill="#FF6C37"/>
<path d="M48.5564 113.875C48.2457 114.03 48.0904 114.341 48.168 114.652L49.4884 120.244C49.7991 121.02 49.3331 121.952 48.4787 122.185C47.8574 122.418 47.1584 122.185 46.77 121.719L38.2266 113.254L66.1093 85.3708L75.7401 85.5262L82.2642 92.0503C80.7108 93.3706 71.313 102.458 48.5564 113.875Z" fill="white"/>
<path d="M47.935 122.962C47.3137 122.962 46.6924 122.729 46.304 122.263L37.8382 113.797C37.6829 113.642 37.6052 113.487 37.6052 113.254C37.6052 113.021 37.6829 112.865 37.8382 112.71L65.721 84.8271C65.8763 84.6718 66.1093 84.5941 66.2646 84.5941L75.8954 84.7495C76.1284 84.7495 76.2838 84.8271 76.4391 84.9825L82.9632 91.5065C83.1185 91.6619 83.1962 91.8949 83.1962 92.1279C83.1962 92.3609 83.1185 92.5162 82.8855 92.6716L82.3419 93.1376C74.1091 100.361 62.9249 107.584 49.0224 114.496L50.3427 120.011C50.5757 121.02 50.1097 122.108 49.1777 122.651C48.7117 122.884 48.3234 122.962 47.935 122.962ZM39.3916 113.254L47.3914 121.176C47.6244 121.564 48.0904 121.719 48.4787 121.486C48.8671 121.253 49.0224 120.787 48.7894 120.399L47.469 114.807C47.3137 114.108 47.6244 113.487 48.2457 113.176C61.9929 106.263 73.0994 99.118 81.2545 92.0502L75.5071 86.3028L66.5753 86.1475L39.3916 113.254Z" fill="#FF6C37"/>
<path d="M31.6248 119.933L38.3042 113.254L48.2457 123.195L32.4015 122.108C31.7024 122.03 31.2364 121.409 31.3141 120.71C31.3141 120.399 31.3918 120.088 31.6248 119.933Z" fill="white"/>
<path d="M48.2457 123.894L32.3238 122.807C31.1588 122.729 30.3821 121.719 30.4598 120.554C30.5375 120.088 30.6928 119.622 31.0812 119.312L37.7606 112.632C38.0713 112.322 38.5373 112.322 38.8479 112.632L48.7894 122.574C49.0224 122.807 49.1001 123.117 48.9447 123.428C48.7894 123.739 48.5564 123.894 48.2457 123.894ZM38.3043 114.341L32.1685 120.477C31.9355 120.632 31.9355 121.02 32.1685 121.176C32.2462 121.253 32.3238 121.331 32.4792 121.331L46.2264 122.263L38.3043 114.341Z" fill="#FF6C37"/>
<path d="M63.3909 88.9436C62.9249 88.9436 62.6143 88.5552 62.6143 88.1669C62.6143 87.9339 62.6919 87.7786 62.8473 87.6232L70.381 80.0894C70.6917 79.7788 71.1577 79.7788 71.4684 80.0894L76.3615 84.9825C76.5945 85.2155 76.6721 85.4485 76.5945 85.7592C76.5168 85.9922 76.2838 86.2252 75.9731 86.3029L63.5463 88.9436C63.4686 88.9436 63.3909 88.9436 63.3909 88.9436ZM70.9247 81.7205L65.7986 86.8465L74.1868 85.0602L70.9247 81.7205Z" fill="#FF6C37"/>
<path d="M75.7401 85.5262L67.1967 87.3902C66.5753 87.5456 65.954 87.1572 65.7986 86.5359C65.721 86.1476 65.7986 85.7592 66.1093 85.4485L70.847 80.7108L75.7401 85.5262Z" fill="white"/>
<path d="M67.0413 88.1669C65.954 88.1669 65.0996 87.3126 65.0996 86.2252C65.0996 85.6815 65.3326 85.2155 65.6433 84.8272L70.381 80.0894C70.6917 79.7788 71.1577 79.7788 71.4684 80.0894L76.3614 84.9825C76.5944 85.2155 76.6721 85.4485 76.5944 85.7592C76.5168 85.9922 76.2838 86.2252 75.9731 86.3029L67.4296 88.1669C67.2743 88.1669 67.119 88.1669 67.0413 88.1669ZM70.9247 81.7205L66.7306 85.9145C66.5753 86.0699 66.5753 86.2252 66.653 86.3805C66.7306 86.5359 66.886 86.6135 67.119 86.6135L74.2644 85.0602L70.9247 81.7205Z" fill="#FF6C37"/>
<path d="M123.35 39.3915C123.195 38.9255 122.651 38.6925 122.185 38.8479C121.719 39.0032 121.486 39.5469 121.642 40.0129C121.642 40.0905 121.719 40.1682 121.719 40.2459C122.185 41.1779 122.03 42.3429 121.409 43.1972C121.098 43.5856 121.176 44.1293 121.486 44.4399C121.875 44.7506 122.418 44.6729 122.729 44.2846C123.894 42.8089 124.127 40.9449 123.35 39.3915Z" fill="#FF6C37"/>
</g>
<defs>
<clipPath id="clip0_2_15587">
<rect width="512" height="156" fill="white"/>
</clipPath>
</defs>
</svg>
