<svg width="256" height="140" viewBox="0 0 256 140" fill="none" xmlns="http://www.w3.org/2000/svg">
<g clip-path="url(#clip0_2_14700)">
<path d="M78.0659 92.5876C90.8838 92.5876 101.275 82.1967 101.275 69.3788C101.275 56.5609 90.8838 46.17 78.0659 46.17C65.2481 46.17 54.8571 56.5609 54.8571 69.3788C54.8571 82.1967 65.2481 92.5876 78.0659 92.5876ZM23.2088 139.005C36.0267 139.005 46.4176 128.614 46.4176 115.796C46.4176 102.979 36.0267 92.5876 23.2088 92.5876C10.3909 92.5876 0 102.979 0 115.796C0 128.614 10.3909 139.005 23.2088 139.005ZM232.791 139.005C245.609 139.005 256 128.614 256 115.796C256 102.979 245.609 92.5876 232.791 92.5876C219.973 92.5876 209.582 102.979 209.582 115.796C209.582 128.614 219.973 139.005 232.791 139.005Z" fill="black"/>
<path d="M156.565 70.3568C155.823 62.6028 155.446 56.149 149.505 51.6132C141.983 45.8687 133.461 49.596 122.964 45.8073C112.65 43.3121 105 34.1546 105 23.2394C105 10.4047 115.578 0 128.626 0C138.291 0 146.6 5.70748 150.26 13.8825C155.861 24.5221 152.22 35.35 159.258 40.8041C167.591 47.2622 178.826 42.5329 191.362 48.6517C195.39 50.5027 198.8 53.4385 201.202 57.0769C203.605 60.7154 205 65.0565 205 69.7183C205 80.6334 197.35 89.791 187.036 92.2862C176.539 96.0749 168.017 92.3476 160.495 98.092C152.035 104.552 156.564 115.359 149.669 126.774C145.756 134.292 137.802 139.437 128.626 139.437C115.578 139.437 105 129.032 105 116.197C105 106.874 110.582 98.8325 118.638 95.1306C131.174 89.0118 142.409 93.7411 150.742 87.283C155.549 83.5574 156.565 77.8103 156.565 70.3568Z" fill="#D0021B"/>
</g>
<defs>
<clipPath id="clip0_2_14700">
<rect width="256" height="140" fill="white"/>
</clipPath>
</defs>
</svg>
