<svg width="256" height="256" viewBox="0 0 256 256" fill="none" xmlns="http://www.w3.org/2000/svg">
<g clip-path="url(#clip0_2_14545)">
<path d="M128 0C57.307 0 0 57.307 0 128C0 198.693 57.307 256 128 256C198.693 256 256 198.693 256 128C256 57.307 198.693 0 128 0Z" fill="#40B3E0"/>
<path d="M190.283 73.631L167.421 188.898C167.421 188.898 164.224 196.892 155.431 193.055L102.673 152.607L83.4886 143.335L51.1946 132.463C51.1946 132.463 46.2386 130.705 45.7586 126.868C45.2796 123.031 51.3546 120.953 51.3546 120.953L179.731 70.593C179.731 70.593 190.283 65.957 190.283 73.631Z" fill="white"/>
<path d="M98.6178 187.604C98.6178 187.604 97.0778 187.46 95.1588 181.384C93.2408 175.309 83.4888 143.335 83.4888 143.335L161.026 94.0947C161.026 94.0947 165.503 91.3767 165.343 94.0947C165.343 94.0947 166.142 94.5737 163.744 96.8117C161.346 99.0507 102.833 151.648 102.833 151.648" fill="#D2E5F1"/>
<path d="M122.901 168.115L102.033 187.141C102.033 187.141 100.402 188.379 98.6175 187.603L102.613 152.262" fill="#B5CFE4"/>
</g>
<defs>
<clipPath id="clip0_2_14545">
<rect width="256" height="256" fill="white"/>
</clipPath>
</defs>
</svg>
