<svg width="256" height="210" viewBox="0 0 256 210" fill="none" xmlns="http://www.w3.org/2000/svg">
<g clip-path="url(#clip0_2_15014)">
<path d="M251 0H5C2.23858 0 0 2.23858 0 5V204.342C0 207.104 2.23858 209.342 5 209.342H251C253.761 209.342 256 207.104 256 204.342V5C256 2.23858 253.761 0 251 0Z" fill="black"/>
<path d="M28.2415 21.7734C27.3857 20.9176 26.3529 20.4897 25.1433 20.4897C23.9337 20.4897 22.8968 20.9218 22.0328 21.7858C21.1811 22.6375 20.7491 23.6743 20.7491 24.884C20.7491 26.0936 21.1811 27.1304 22.0328 27.9821L35.4746 41.424L22.0451 54.8535C21.1811 55.7175 20.7491 56.7544 20.7367 57.964C20.7491 59.1736 21.1811 60.2105 22.0328 61.0622C22.8968 61.9139 23.9337 62.3459 25.131 62.3582C26.3529 62.3582 27.3898 61.9262 28.2538 61.0622L43.1892 46.1144C46.3244 42.9916 46.3244 39.8564 43.1892 36.7212L28.2415 21.7734ZM86.7857 54.8782C85.9217 54.0141 84.8725 53.5821 83.6505 53.5821V53.576H54.8166V53.5821C53.5946 53.5821 52.5578 54.0141 51.6937 54.8782C50.8297 55.7422 50.3977 56.779 50.3977 58.001C50.3977 59.223 50.8297 60.2722 51.6937 61.1362C52.5578 62.0003 53.5946 62.4323 54.8166 62.4323V62.4261H83.6505V62.4323C84.8725 62.4323 85.9217 62.0003 86.7857 61.1362C87.6498 60.2722 88.0818 59.223 88.0818 58.001C88.0818 56.779 87.6498 55.7422 86.7857 54.8782Z" fill="white"/>
</g>
<defs>
<clipPath id="clip0_2_15014">
<rect width="256" height="210" fill="white"/>
</clipPath>
</defs>
</svg>
