<svg width="256" height="254" viewBox="0 0 256 254" fill="none" xmlns="http://www.w3.org/2000/svg">
<g clip-path="url(#clip0_2_14477)">
<mask id="mask0_2_14477" style="mask-type:alpha" maskUnits="userSpaceOnUse" x="0" y="0" width="256" height="254">
<path d="M180.828 252.605C184.844 254.17 189.424 254.069 193.478 252.119L245.979 226.857C251.496 224.202 255.004 218.618 255.004 212.493V41.197C255.004 35.0717 251.496 29.4885 245.979 26.8338L193.478 1.57052C188.158 -0.989422 181.931 -0.362395 177.263 3.03218C176.595 3.51711 175.96 4.05853 175.364 4.6552L74.8566 96.3497L31.0778 63.118C27.0024 60.0245 21.3021 60.2779 17.5171 63.7209L3.47578 76.4935C-1.15402 80.7051 -1.15933 87.9887 3.46432 92.2071L41.4308 126.844L3.46432 161.482C-1.15933 165.701 -1.15402 172.984 3.47578 177.196L17.5171 189.968C21.3021 193.411 27.0024 193.664 31.0778 190.571L74.8566 157.339L175.364 249.034C176.954 250.625 178.82 251.823 180.828 252.605ZM191.292 68.9558L115.03 126.844L191.292 184.733V68.9558Z" fill="white"/>
</mask>
<g mask="url(#mask0_2_14477)">
<path d="M246.135 26.873L193.593 1.57493C187.512 -1.35332 180.243 -0.118117 175.47 4.65484L3.46642 161.482C-1.16004 165.7 -1.15472 172.984 3.47789 177.196L17.5277 189.968C21.3151 193.411 27.0189 193.664 31.0967 190.571L238.229 33.436C245.178 28.1644 255.159 33.1206 255.159 41.843V41.2329C255.159 35.1104 251.651 29.5291 246.135 26.873Z" fill="#0065A9"/>
<path d="M246.135 226.816L193.593 252.115C187.512 255.042 180.243 253.807 175.47 249.035L3.46642 92.2074C-1.16004 87.9891 -1.15472 80.7053 3.47789 76.4938L17.5277 63.7212C21.3151 60.2782 27.0189 60.0247 31.0967 63.1183L238.229 220.253C245.178 225.524 255.159 220.569 255.159 211.846V212.456C255.159 218.579 251.651 224.16 246.135 226.816Z" fill="#007ACC"/>
<path d="M193.428 252.135C187.345 255.061 180.076 253.824 175.303 249.051C181.184 254.932 191.241 250.766 191.241 242.449V11.2734C191.241 2.95587 181.184 -1.2096 175.303 4.67181C180.076 -0.101592 187.345 -1.33853 193.428 1.58713L245.961 26.8505C251.482 29.5051 254.992 35.0884 254.992 41.2137V212.51C254.992 218.635 251.482 224.218 245.961 226.873L193.428 252.135Z" fill="#1F9CF0"/>
<path d="M180.828 252.605C184.844 254.169 189.424 254.07 193.477 252.119L245.978 226.856C251.496 224.201 255.004 218.618 255.004 212.493V41.197C255.004 35.0717 251.496 29.4884 245.979 26.8338L193.477 1.57053C188.158 -0.989423 181.932 -0.362396 177.262 3.03218C176.595 3.5171 175.96 4.05853 175.363 4.6552L74.8565 96.3496L31.0778 63.118C27.0025 60.0244 21.302 60.278 17.517 63.7209L3.47578 76.4935C-1.15402 80.7051 -1.15933 87.9888 3.46432 92.2071L41.4308 126.845L3.46432 161.482C-1.15933 165.701 -1.15402 172.984 3.47578 177.196L17.517 189.968C21.302 193.411 27.0025 193.665 31.0778 190.572L74.8565 157.339L175.363 249.034C176.953 250.625 178.821 251.823 180.828 252.605ZM191.292 68.9557L115.03 126.845L191.292 184.733V68.9557Z" fill="url(#paint0_linear_2_14477)" fill-opacity="0.25"/>
</g>
</g>
<defs>
<linearGradient id="paint0_linear_2_14477" x1="127.502" y1="-9.93562e-07" x2="127.502" y2="253.689" gradientUnits="userSpaceOnUse">
<stop stop-color="white"/>
<stop offset="1" stop-color="white" stop-opacity="0"/>
</linearGradient>
<clipPath id="clip0_2_14477">
<rect width="256" height="254" fill="white"/>
</clipPath>
</defs>
</svg>
