<svg width="256" height="259" viewBox="0 0 256 259" fill="none" xmlns="http://www.w3.org/2000/svg">
<g clip-path="url(#clip0_2_14709)">
<path d="M67.6631 221.824L71.8484 223.916C89.2874 234.38 108.819 239.262 128.351 239.262C189.736 239.262 239.96 189.038 239.96 127.653C239.96 98.3558 228.101 69.7559 207.175 48.8292C186.248 27.9024 158.346 16.0439 128.351 16.0439C66.9655 16.0439 16.7414 66.2681 17.4389 128.351C17.4389 149.277 23.717 169.507 34.1803 186.946L36.9706 191.131L25.8096 232.287L67.6631 221.824Z" fill="#00E676"/>
<path d="M219.033 37.6681C195.316 13.2536 162.531 0 129.048 0C57.8973 0 0.697558 57.8973 1.39512 128.351C1.39512 150.672 7.67313 172.297 18.1365 191.828L0 258.096L67.6631 240.657C86.4972 251.121 107.424 256.004 128.351 256.004C198.804 256.004 256.004 198.106 256.004 127.653C256.004 93.4727 242.75 61.3851 219.033 37.6681ZM129.048 234.379C110.214 234.379 91.3801 229.497 75.3362 219.731L71.1509 217.638L30.6925 228.101L41.1559 188.341L38.3657 184.155C7.67313 134.629 22.3218 69.0582 72.546 38.3657C122.77 7.67313 187.643 22.3218 218.336 72.546C249.028 122.77 234.379 187.643 184.155 218.336C168.111 228.799 148.58 234.379 129.048 234.379ZM190.433 156.951L182.76 153.463C182.76 153.463 171.599 148.58 164.624 145.092C163.926 145.092 163.229 144.394 162.531 144.394C160.438 144.394 159.043 145.092 157.648 145.79C157.648 145.79 156.951 146.487 147.185 157.648C146.487 159.043 145.092 159.741 143.697 159.741H142.999C142.302 159.741 140.907 159.043 140.209 158.346L136.721 156.951C129.048 153.463 122.073 149.277 116.492 143.697C115.097 142.302 113.004 140.907 111.609 139.512C106.726 134.629 101.843 129.048 98.3556 122.77L97.6581 121.375C96.9605 120.677 96.9605 119.98 96.263 118.585C96.263 117.19 96.263 115.795 96.9605 115.097C96.9605 115.097 99.7508 111.609 101.843 109.517C103.239 108.121 103.936 106.029 105.331 104.634C106.726 102.541 107.424 99.7508 106.726 97.6581C106.029 94.1703 97.6581 75.3362 95.5654 71.1509C94.1703 69.0582 92.7752 68.3607 90.6825 67.6631H88.5898C87.1947 67.6631 85.1021 67.6631 83.0094 67.6631C81.6143 67.6631 80.2191 68.3607 78.824 68.3607L78.1265 69.0582C76.7314 69.7558 75.3362 71.1509 73.9411 71.8484C72.546 73.2436 71.8485 74.6387 70.4533 76.0338C65.5704 82.3118 62.7802 89.985 62.7802 97.6581C62.7802 103.239 64.1753 108.819 66.268 113.702L66.9655 115.795C73.2436 129.048 81.6143 140.907 92.7752 151.37L95.5654 154.16C97.6581 156.253 99.7508 157.648 101.146 159.741C115.795 172.297 132.536 181.365 151.37 186.248C153.463 186.945 156.253 186.945 158.346 187.643C160.438 187.643 163.229 187.643 165.321 187.643C168.809 187.643 172.994 186.248 175.785 184.853C177.877 183.458 179.272 183.458 180.667 182.063L182.063 180.667C183.458 179.272 184.853 178.575 186.248 177.18C187.643 175.785 189.038 174.389 189.736 172.994C191.131 170.204 191.828 166.716 192.526 163.229C192.526 161.833 192.526 159.741 192.526 158.346C192.526 158.346 191.828 157.648 190.433 156.951Z" fill="white"/>
</g>
<defs>
<clipPath id="clip0_2_14709">
<rect width="256" height="259" fill="white"/>
</clipPath>
</defs>
</svg>
